<svg width="40" height="40" viewBox="0 0 40 40" fill="none" xmlns="http://www.w3.org/2000/svg">
<path d="M19.9834 3.33331C10.7834 3.33331 3.33337 10.8 3.33337 20C3.33337 29.2 10.7834 36.6666 19.9834 36.6666C29.2 36.6666 36.6667 29.2 36.6667 20C36.6667 10.8 29.2 3.33331 19.9834 3.33331ZM20 33.3333C12.6334 33.3333 6.66671 27.3666 6.66671 20C6.66671 12.6333 12.6334 6.66665 20 6.66665C27.3667 6.66665 33.3334 12.6333 33.3334 20C33.3334 27.3666 27.3667 33.3333 20 33.3333ZM20.8334 11.6666H18.3334V21.6666L27.0834 26.9166L28.3334 24.8666L20.8334 20.4166V11.6666Z" fill="black"/>
</svg>
