<svg width="44" height="44" viewBox="0 0 44 44" fill="none" xmlns="http://www.w3.org/2000/svg">
<path fill-rule="evenodd" clip-rule="evenodd" d="M22 4.88889C19.7529 4.88889 17.5279 5.33148 15.4519 6.19139C13.3758 7.05131 11.4895 8.3117 9.90062 9.90062C8.3117 11.4895 7.05131 13.3758 6.19139 15.4519C5.33148 17.5279 4.88889 19.7529 4.88889 22C4.88889 24.2471 5.33148 26.4721 6.19139 28.5481C7.05131 30.6242 8.3117 32.5105 9.90062 34.0994C11.4895 35.6883 13.3758 36.9487 15.4519 37.8086C17.5279 38.6685 19.7529 39.1111 22 39.1111C26.5381 39.1111 30.8904 37.3083 34.0994 34.0994C37.3083 30.8904 39.1111 26.5381 39.1111 22C39.1111 17.4619 37.3083 13.1096 34.0994 9.90062C30.8904 6.69166 26.5381 4.88889 22 4.88889ZM0 22C0 16.1652 2.31785 10.5695 6.44365 6.44365C10.5695 2.31785 16.1652 0 22 0C27.8348 0 33.4305 2.31785 37.5563 6.44365C41.6821 10.5695 44 16.1652 44 22C44 27.8348 41.6821 33.4305 37.5563 37.5563C33.4305 41.6821 27.8348 44 22 44C16.1652 44 10.5695 41.6821 6.44365 37.5563C2.31785 33.4305 0 27.8348 0 22ZM34.2222 22.1687C34.2222 22.817 33.9647 23.4387 33.5063 23.8972C33.0478 24.3556 32.4261 24.6131 31.7778 24.6131H24.6131V31.7778C24.6131 32.4261 24.3556 33.0478 23.8972 33.5063C23.4387 33.9647 22.817 34.2222 22.1687 34.2222C21.5204 34.2222 20.8986 33.9647 20.4402 33.5063C19.9818 33.0478 19.7242 32.4261 19.7242 31.7778V24.6131H12.2222C11.5739 24.6131 10.9522 24.3556 10.4937 23.8972C10.0353 23.4387 9.77778 22.817 9.77778 22.1687C9.77778 21.5204 10.0353 20.8986 10.4937 20.4402C10.9522 19.9818 11.5739 19.7242 12.2222 19.7242H19.7242V12.2222C19.7242 11.5739 19.9818 10.9522 20.4402 10.4937C20.8986 10.0353 21.5204 9.77778 22.1687 9.77778C22.817 9.77778 23.4387 10.0353 23.8972 10.4937C24.3556 10.9522 24.6131 11.5739 24.6131 12.2222V19.7242H31.7778C32.4261 19.7242 33.0478 19.9818 33.5063 20.4402C33.9647 20.8986 34.2222 21.5204 34.2222 22.1687Z" fill="black"/>
</svg>
