<svg width="18" height="18" viewBox="0 0 18 18" fill="none" xmlns="http://www.w3.org/2000/svg">
<path fill-rule="evenodd" clip-rule="evenodd" d="M9.0001 0.600006C9.66284 0.600006 10.2001 1.13726 10.2001 1.80001V7.80001H16.2001C16.8628 7.80001 17.4001 8.33726 17.4001 9.00001C17.4001 9.66275 16.8628 10.2 16.2001 10.2H10.2001V16.2C10.2001 16.8627 9.66284 17.4 9.0001 17.4C8.33736 17.4 7.8001 16.8627 7.8001 16.2V10.2H1.8001C1.13736 10.2 0.600098 9.66275 0.600098 9C0.600098 8.33726 1.13736 7.8 1.8001 7.8L7.8001 7.80001V1.80001C7.8001 1.13726 8.33736 0.600006 9.0001 0.600006Z" fill="white"/>
</svg>
