<svg width="121" height="153" viewBox="0 0 121 153" fill="none" xmlns="http://www.w3.org/2000/svg">
<path d="M110.5 54.875H70.5V11.625H10.5V141.375H110.5V54.875ZM106.36 44.0625L80.5 16.1014V44.0625H106.36ZM5.5 0.8125H80.5L120.5 44.0625V146.781C120.5 148.215 119.973 149.59 119.036 150.604C118.098 151.618 116.826 152.188 115.5 152.188H5.5C4.17392 152.188 2.90215 151.618 1.96447 150.604C1.02679 149.59 0.5 148.215 0.5 146.781V6.21875C0.5 4.78492 1.02679 3.40982 1.96447 2.39595C2.90215 1.38209 4.17392 0.8125 5.5 0.8125ZM30.5 76.5H90.5V87.3125H30.5V76.5ZM30.5 44.0625H55.5V54.875H30.5V44.0625ZM30.5 108.938H90.5V119.75H30.5V108.938Z" fill="#7CA153"/>
</svg>
