<svg width="63" height="72" viewBox="0 0 63 72" fill="none" xmlns="http://www.w3.org/2000/svg">
<path d="M5.5 31.6801H10.5V48.9601H7.5C6.70435 48.9601 5.94129 49.4152 5.37868 50.2254C4.81607 51.0355 4.5 52.1343 4.5 53.2801C4.5 54.4258 4.81607 55.5246 5.37868 56.3347C5.94129 57.1449 6.70435 57.6 7.5 57.6H55.5C56.2957 57.6 57.0587 57.1449 57.6213 56.3347C58.1839 55.5246 58.5 54.4258 58.5 53.2801C58.5 52.1343 58.1839 51.0355 57.6213 50.2254C57.0587 49.4152 56.2957 48.9601 55.5 48.9601H52.5V31.6801H57.5C58.1532 31.6802 58.7886 31.3733 59.3097 30.8059C59.8307 30.2386 60.2089 29.4419 60.3868 28.5368C60.5647 27.6317 60.5327 26.6678 60.2954 25.7913C60.0582 24.9149 59.6288 24.1739 59.0725 23.6809L33.0725 0.641019C32.5996 0.221908 32.0553 0 31.5 0C30.9447 0 30.4004 0.221908 29.9275 0.641019L3.9275 23.6809C3.37117 24.1739 2.94178 24.9149 2.70456 25.7913C2.46734 26.6678 2.43526 27.6317 2.61318 28.5368C2.7911 29.4419 3.16931 30.2386 3.69034 30.8059C4.21138 31.3733 4.84678 31.6802 5.5 31.6801ZM16.5 31.6801H22.5V48.9601H16.5V31.6801ZM34.5 31.6801V48.9601H28.5V31.6801H34.5ZM46.5 48.9601H40.5V31.6801H46.5V48.9601ZM31.5 9.39259L46.9 23.0401H16.1L31.5 9.39259ZM62.5 67.68C62.5 68.8257 62.1839 69.9246 61.6213 70.7347C61.0587 71.5449 60.2957 72 59.5 72H3.5C2.70435 72 1.94129 71.5449 1.37868 70.7347C0.81607 69.9246 0.5 68.8257 0.5 67.68C0.5 66.5343 0.81607 65.4355 1.37868 64.6253C1.94129 63.8152 2.70435 63.36 3.5 63.36H59.5C60.2957 63.36 61.0587 63.8152 61.6213 64.6253C62.1839 65.4355 62.5 66.5343 62.5 67.68Z" fill="black" fill-opacity="0.72"/>
</svg>
