<svg width="16" height="15" viewBox="0 0 16 15" fill="none" xmlns="http://www.w3.org/2000/svg">
<path d="M14.2938 14.625C12.5917 14.625 10.9325 14.2457 9.31615 13.487C7.69983 12.7283 6.26823 11.7255 5.02135 10.4786C3.77448 9.23177 2.7717 7.80017 2.01302 6.18385C1.25434 4.56753 0.875 2.90833 0.875 1.20625C0.875 0.96875 0.954167 0.770833 1.1125 0.6125C1.27083 0.454167 1.46875 0.375 1.70625 0.375H4.9125C5.09722 0.375 5.26215 0.434375 5.40729 0.553125C5.55243 0.671875 5.63819 0.823611 5.66458 1.00833L6.17917 3.77917C6.20556 3.96389 6.20226 4.13212 6.16927 4.28385C6.13628 4.43559 6.06042 4.57083 5.94167 4.68958L4.04167 6.62917C4.59583 7.57917 5.28854 8.46979 6.11979 9.30104C6.95104 10.1323 7.86806 10.8514 8.87083 11.4583L10.7312 9.59792C10.85 9.47917 11.005 9.3901 11.1964 9.33073C11.3877 9.27135 11.5757 9.25486 11.7604 9.28125L14.4917 9.83542C14.6764 9.875 14.8281 9.96406 14.9469 10.1026C15.0656 10.2411 15.125 10.4028 15.125 10.5875V13.7938C15.125 14.0313 15.0458 14.2292 14.8875 14.3875C14.7292 14.5458 14.5313 14.625 14.2938 14.625Z" fill="#7CA153"/>
</svg>
