<svg width="161" height="173" viewBox="0 0 161 173" fill="none" xmlns="http://www.w3.org/2000/svg">
<path d="M110.5 140.562C116.023 140.562 120.5 135.722 120.5 129.75C120.5 123.778 116.023 118.938 110.5 118.938C104.977 118.938 100.5 123.778 100.5 129.75C100.5 135.722 104.977 140.562 110.5 140.562Z" fill="#7CA153"/>
<path d="M149.385 126.933C146.296 118.423 140.964 111.081 134.052 105.815C127.14 100.55 118.951 97.5935 110.5 97.3125C102.049 97.5935 93.8597 100.55 86.9476 105.815C80.0355 111.081 74.7044 118.423 71.615 126.933L70.5 129.75L71.615 132.567C74.7044 141.077 80.0355 148.419 86.9476 153.685C93.8597 158.95 102.049 161.906 110.5 162.188C118.951 161.906 127.14 158.95 134.052 153.685C140.964 148.419 146.296 141.077 149.385 132.567L150.5 129.75L149.385 126.933ZM110.5 151.375C106.544 151.375 102.678 150.107 99.3886 147.731C96.0996 145.354 93.5362 141.977 92.0224 138.026C90.5087 134.074 90.1126 129.726 90.8843 125.531C91.656 121.336 93.5608 117.483 96.3579 114.459C99.1549 111.435 102.719 109.375 106.598 108.541C110.478 107.706 114.499 108.134 118.154 109.771C121.808 111.408 124.932 114.18 127.129 117.736C129.327 121.292 130.5 125.473 130.5 129.75C130.493 135.483 128.384 140.979 124.635 145.033C120.886 149.087 115.802 151.368 110.5 151.375Z" fill="#7CA153"/>
<path d="M60.5 151.375H40.5V21.6249H80.5V54.0624C80.5079 56.9274 81.564 59.6726 83.4377 61.6985C85.3113 63.7244 87.8503 64.8663 90.5 64.8749H120.5V86.4999H130.5V54.0624C130.518 53.3519 130.393 52.6457 130.134 51.9924C129.875 51.3391 129.488 50.7542 129 50.278L94 12.4343C93.5598 11.9063 93.0189 11.4879 92.4147 11.2079C91.8104 10.9279 91.1572 10.7929 90.5 10.8124H40.5C37.8503 10.8209 35.3113 11.9629 33.4377 13.9887C31.564 16.0146 30.5079 18.7599 30.5 21.6249V151.375C30.5079 154.24 31.564 156.985 33.4377 159.011C35.3113 161.037 37.8503 162.179 40.5 162.187H60.5V151.375ZM90.5 23.7874L118.5 54.0624H90.5V23.7874Z" fill="#7CA153"/>
</svg>
