<svg width="40" height="40" viewBox="0 0 40 40" fill="none" xmlns="http://www.w3.org/2000/svg">
<path d="M35.8838 24.1162L32.5 20.7325V16.25C32.4961 13.1523 31.3438 10.1661 29.2658 7.86873C27.1878 5.57139 24.3318 4.12617 21.25 3.8125V1.25H18.75V3.8125C15.6682 4.12617 12.8122 5.57139 10.7342 7.86873C8.65622 10.1661 7.50388 13.1523 7.5 16.25V20.7325L4.11625 24.1162C3.88181 24.3506 3.75007 24.6685 3.75 25V28.75C3.75 29.0815 3.8817 29.3995 4.11612 29.6339C4.35054 29.8683 4.66848 30 5 30H13.75V31.25C13.75 32.9076 14.4085 34.4973 15.5806 35.6694C16.7527 36.8415 18.3424 37.5 20 37.5C21.6576 37.5 23.2473 36.8415 24.4194 35.6694C25.5915 34.4973 26.25 32.9076 26.25 31.25V30H35C35.3315 30 35.6495 29.8683 35.8839 29.6339C36.1183 29.3995 36.25 29.0815 36.25 28.75V25C36.2499 24.6685 36.1182 24.3506 35.8838 24.1162ZM23.75 31.25C23.75 32.2446 23.3549 33.1984 22.6517 33.9016C21.9484 34.6049 20.9946 35 20 35C19.0054 35 18.0516 34.6049 17.3483 33.9016C16.6451 33.1984 16.25 32.2446 16.25 31.25V30H23.75V31.25Z" fill="black"/>
</svg>
