<svg width="40" height="44" viewBox="0 0 40 44" fill="none" xmlns="http://www.w3.org/2000/svg">
<path d="M17.9104 0V8H13.9303L21.8905 16L29.8507 8H25.8706V0M0 4V8H3.9801L11.1443 23.2L8.35821 28C8.1592 28.6 7.9602 29.2 7.9602 30C7.9602 32.2 9.75124 34 11.9403 34H35.8209V30H12.7363C12.5373 30 12.3383 29.8 12.3383 29.6V29.4L14.1294 26H28.8557C30.2488 26 31.6418 25.2 32.2388 24L40 10L36.6169 8L28.8557 22H14.9254L6.56716 4M11.9403 36C9.75124 36 7.9602 37.8 7.9602 40C7.9602 42.2 9.75124 44 11.9403 44C14.1294 44 15.9204 42.2 15.9204 40C15.9204 37.8 14.1294 36 11.9403 36ZM31.8408 36C29.6517 36 27.8607 37.8 27.8607 40C27.8607 42.2 29.6517 44 31.8408 44C34.0299 44 35.8209 42.2 35.8209 40C35.8209 37.8 34.0299 36 31.8408 36Z" fill="black"/>
</svg>
