<svg width="36" height="35" viewBox="0 0 36 35" fill="none" xmlns="http://www.w3.org/2000/svg">
<path d="M34.5 17.0532C34.5054 20.241 33.5311 23.3576 31.7023 26.0023C30.1941 28.1913 28.1549 29.985 25.7651 31.2247C23.3752 32.4645 20.7082 33.112 18 33.1102C15.2918 33.112 12.6248 32.4645 10.2349 31.2247C7.84503 29.985 5.80585 28.1913 4.29767 26.0023C2.86167 23.9192 1.94715 21.5377 1.62743 19.0487C1.3077 16.5596 1.59166 14.0323 2.45654 11.6693C3.32142 9.30632 4.74316 7.17338 6.60779 5.44148C8.47242 3.70958 10.7281 2.4269 13.1939 1.69625C15.6598 0.965609 18.2672 0.807332 20.8073 1.23411C23.3473 1.66089 25.7493 2.66084 27.8206 4.15382C29.8919 5.64681 31.575 7.59128 32.735 9.83136C33.8949 12.0714 34.4994 14.5448 34.5 17.0532Z" stroke="white" strokeWidth="2"/>
<path d="M20.7494 11.6985C20.7494 12.4083 20.4596 13.089 19.9439 13.5909C19.4282 14.0928 18.7287 14.3747 17.9994 14.3747V16.1588C18.6013 16.1588 19.1973 16.0435 19.7533 15.8193C20.3094 15.5952 20.8147 15.2666 21.2403 14.8524C21.6659 14.4383 22.0035 13.9466 22.2338 13.4054C22.4642 12.8643 22.5827 12.2843 22.5827 11.6985H20.7494ZM17.9994 14.3747C17.27 14.3747 16.5706 14.0928 16.0548 13.5909C15.5391 13.089 15.2494 12.4083 15.2494 11.6985H13.416C13.416 12.2843 13.5346 12.8643 13.7649 13.4054C13.9953 13.9466 14.3329 14.4383 14.7585 14.8524C15.618 15.6889 16.7838 16.1588 17.9994 16.1588V14.3747ZM15.2494 11.6985C15.2494 10.9888 15.5391 10.3081 16.0548 9.80622C16.5706 9.30434 17.27 9.02239 17.9994 9.02239V7.23828C16.7838 7.23828 15.618 7.7082 14.7585 8.54466C13.8989 9.38113 13.416 10.5156 13.416 11.6985H15.2494ZM17.9994 9.02239C18.7287 9.02239 19.4282 9.30434 19.9439 9.80622C20.4596 10.3081 20.7494 10.9888 20.7494 11.6985H22.5827C22.5827 10.5156 22.0998 9.38113 21.2403 8.54466C20.3807 7.7082 19.215 7.23828 17.9994 7.23828V9.02239ZM5.47038 27.4986L4.59038 27.2453L4.44922 27.7109L4.77372 28.0802L5.47038 27.4986ZM30.5284 27.4986L31.225 28.0802L31.5495 27.7109L31.4065 27.2453L30.5284 27.4986ZM12.4994 23.2952H23.4994V21.5111H12.4994V23.2952ZM12.4994 21.5111C10.7228 21.5115 8.99367 22.0696 7.56909 23.1027C6.14451 24.1358 5.09867 25.5886 4.59038 27.2453L6.34855 27.7537C6.74429 26.4654 7.55657 25.3357 8.66469 24.5325C9.77281 23.7293 11.1176 23.2954 12.4994 23.2952V21.5111ZM17.9994 32.2158C15.7504 32.2181 13.5276 31.7456 11.4845 30.8308C9.44138 29.9159 7.62654 28.5806 6.16522 26.917L4.77372 28.0802C6.40731 29.9388 8.43568 31.4305 10.719 32.4525C13.0023 33.4745 15.4862 34.0024 17.9994 33.9999V32.2158ZM23.4994 23.2952C24.8813 23.2955 26.2264 23.7296 27.3345 24.5332C28.4427 25.3368 29.2548 26.4669 29.6502 27.7555L31.4065 27.2453C30.8983 25.5886 29.8542 24.1358 28.4297 23.1027C27.0051 22.0696 25.276 21.5115 23.4994 21.5111V23.2952ZM29.8335 26.917C28.3722 28.5806 26.5574 29.9159 24.5143 30.8308C22.4711 31.7456 20.2484 32.2181 17.9994 32.2158V33.9999C20.5126 34.0024 22.9965 33.4745 25.2798 32.4525C27.5631 31.4305 29.5914 29.9388 31.225 28.0802L29.8317 26.9188L29.8335 26.917Z" fill="white"/>
</svg>
