<svg width="37" height="31" viewBox="0 0 37 31" fill="none" xmlns="http://www.w3.org/2000/svg">
<path d="M6.12813 27.125C5.69132 27.125 5.3316 27.001 5.04896 26.753C4.76632 26.505 4.625 26.1985 4.625 25.8333C4.625 25.4674 4.773 25.1604 5.069 24.9124C5.365 24.6644 5.73089 24.5408 6.16667 24.5417H30.8719C31.3087 24.5417 31.6684 24.6657 31.951 24.9137C32.2337 25.1617 32.375 25.4682 32.375 25.8333C32.375 26.1993 32.227 26.5063 31.931 26.7543C31.635 27.0023 31.2691 27.1259 30.8333 27.125H6.12813ZM7.70834 21.9583C6.86042 21.9583 6.13429 21.7052 5.52996 21.1988C4.92563 20.6925 4.62397 20.0846 4.625 19.375V11.625C4.625 10.9146 4.92717 10.3062 5.5315 9.79988C6.13584 9.29355 6.86145 9.04081 7.70834 9.04167H29.2917C30.1396 9.04167 30.8657 9.29484 31.47 9.80117C32.0744 10.3075 32.376 10.9155 32.375 11.625V19.375C32.375 20.0854 32.0728 20.6938 31.4685 21.2001C30.8642 21.7065 30.1386 21.9592 29.2917 21.9583H7.70834ZM6.12813 6.45834C5.69132 6.45834 5.3316 6.33434 5.04896 6.08634C4.76632 5.83834 4.625 5.53178 4.625 5.16667C4.625 4.8007 4.773 4.49371 5.069 4.24571C5.365 3.99771 5.73089 3.87414 6.16667 3.875H30.8719C31.3087 3.875 31.6684 3.999 31.951 4.247C32.2337 4.495 32.375 4.80156 32.375 5.16667C32.375 5.53264 32.227 5.83963 31.931 6.08763C31.635 6.33563 31.2691 6.4592 30.8333 6.45834H6.12813Z" fill="black"/>
</svg>
