<svg width="17" height="18" viewBox="0 0 17 18" fill="none" xmlns="http://www.w3.org/2000/svg">
<path d="M14.0418 4.75C13.3821 4.75 12.8213 4.5191 12.3595 4.05729C11.8977 3.59549 11.6668 3.03472 11.6668 2.375C11.6668 1.71528 11.8977 1.15451 12.3595 0.692708C12.8213 0.230903 13.3821 0 14.0418 0C14.7016 0 15.2623 0.230903 15.7241 0.692708C16.1859 1.15451 16.4168 1.71528 16.4168 2.375C16.4168 3.03472 16.1859 3.59549 15.7241 4.05729C15.2623 4.5191 14.7016 4.75 14.0418 4.75ZM0.583496 17.4167V3.16667C0.583496 2.73125 0.738531 2.35851 1.0486 2.04844C1.35867 1.73837 1.73141 1.58333 2.16683 1.58333H10.1627C10.1099 1.84722 10.0835 2.11111 10.0835 2.375C10.0835 2.63889 10.1099 2.90278 10.1627 3.16667C10.2286 3.47014 10.321 3.75382 10.4397 4.01771C10.5585 4.2816 10.7036 4.52569 10.8752 4.75H3.75016V6.33333H14.0418C14.4641 6.33333 14.8797 6.26736 15.2887 6.13542C15.6977 6.00347 16.0738 5.80556 16.4168 5.54167V12.6667C16.4168 13.1021 16.2618 13.4748 15.9517 13.7849C15.6417 14.095 15.2689 14.25 14.8335 14.25H3.75016L0.583496 17.4167ZM3.75016 8.70833H13.2502V7.125H3.75016V8.70833ZM3.75016 11.0833H10.0835V9.5H3.75016V11.0833Z" fill="#7CA153"/>
</svg>
