<svg width="24" height="25" viewBox="0 0 24 25" fill="none" xmlns="http://www.w3.org/2000/svg">
<rect y="0.5" width="24" height="24" rx="5" fill="#769E4B"/>
<path d="M21.6869 17.6972L18.67 11.3628C18.1206 10.2032 17.3013 9.54553 16.3664 9.50226C15.4411 9.45899 14.5447 10.0388 13.8603 11.1464L12.029 14.0973C11.6434 14.7204 11.094 15.0925 10.4964 15.1358C9.88918 15.1877 9.28194 14.9021 8.79037 14.3396L8.57832 14.0973C7.89397 13.3272 7.04577 12.9551 6.17829 13.033C5.31081 13.1108 4.56863 13.6474 4.07706 14.5214L2.40957 17.5069C1.81197 18.5886 1.8698 19.8433 2.57343 20.8645C3.27705 21.8856 4.50116 22.5 5.84094 22.5H18.1399C19.4315 22.5 20.6363 21.9202 21.3496 20.951C22.0821 19.9818 22.1978 18.7616 21.6869 17.6972Z" fill="white"/>
<path d="M7.09833 11.6967C8.8095 11.6967 10.1966 10.3095 10.1966 8.59833C10.1966 6.88717 8.8095 5.5 7.09833 5.5C5.38717 5.5 4 6.88717 4 8.59833C4 10.3095 5.38717 11.6967 7.09833 11.6967Z" fill="white"/>
<path d="M19 6.7549H17.2941V8.5H15.7059V6.7549H14V5.2549H15.7059V3.5H17.2941V5.2549H19V6.7549Z" fill="white"/>
</svg>
