<svg width="50" height="50" viewBox="0 0 50 50" fill="none" xmlns="http://www.w3.org/2000/svg">
<path d="M25 5.90279C20.6287 5.89778 16.3474 7.14381 12.6615 9.49372C8.97565 11.8436 6.03925 15.1993 4.19912 19.1643C2.35899 23.1293 1.69199 27.5382 2.27689 31.8701C2.86179 36.202 4.67416 40.2761 7.49995 43.6111L7.91662 44.0972H42.0833L42.5 43.6111C45.3257 40.2761 47.1381 36.202 47.723 31.8701C48.3079 27.5382 47.6409 23.1293 45.8008 19.1643C43.9607 15.1993 41.0243 11.8436 37.3384 9.49372C33.6525 7.14381 29.3712 5.89778 25 5.90279ZM36.9444 19.0695L28.7222 27.1389C29.1424 28.0273 29.2351 29.0357 28.9838 29.9859C28.7325 30.9361 28.1534 31.7668 27.3489 32.3313C26.5443 32.8958 25.5662 33.1578 24.5872 33.0709C23.6082 32.984 22.6915 32.5538 21.999 31.8564C21.3065 31.159 20.8828 30.2392 20.8028 29.2596C20.7228 28.2801 20.9917 27.3038 21.5618 26.5032C22.132 25.7027 22.9668 25.1295 23.9188 24.8849C24.8707 24.6404 25.8784 24.7402 26.7638 25.1667L34.9722 17.0972L36.9444 19.0695ZM4.99995 27.6389H9.72218V30.4167H4.9444C4.9444 29.875 4.87495 29.3472 4.87495 28.7917C4.87495 28.2361 4.90273 28.0278 4.93051 27.6389H4.99995ZM11.7777 13.75L15.1944 17.1667L13.1527 19.0833L9.72218 15.6806C10.3379 14.9781 11.0015 14.3191 11.7083 13.7083L11.7777 13.75ZM26.3888 13.5972H23.6111V8.73612H25C25.5138 8.73612 25.9722 8.73612 26.3888 8.80556V13.5972ZM45.125 28.8056C45.125 29.3472 45.125 29.9028 45.0555 30.4306H40.1666V27.6528H45.0694C45.0972 28.0278 45.125 28.4167 45.125 28.8056Z" fill="black"/>
</svg>
