<svg width="40" height="40" viewBox="0 0 40 40" fill="none" xmlns="http://www.w3.org/2000/svg">
<path fill-rule="evenodd" clip-rule="evenodd" d="M20 36C28.8366 36 36 28.8366 36 20C36 11.1634 28.8366 4 20 4C11.1634 4 4 11.1634 4 20C4 28.8366 11.1634 36 20 36ZM21 12C21 11.4477 20.5523 11 20 11C19.4477 11 19 11.4477 19 12V20C19 20.2652 19.1054 20.5196 19.2929 20.7071L24.9497 26.364C25.3403 26.7545 25.9734 26.7545 26.364 26.364C26.7545 25.9734 26.7545 25.3403 26.364 24.9497L21 19.5858V12Z" fill="#111827"/>
</svg>
