<svg width="25" height="23" viewBox="0 0 25 23" fill="none" xmlns="http://www.w3.org/2000/svg">
<path d="M20.8333 22.0307C19.6759 22.0307 18.6921 21.7094 17.8819 21.0668C17.0718 20.4242 16.6667 19.644 16.6667 18.7261C16.6667 18.5975 16.6782 18.4643 16.7014 18.3262C16.7245 18.1889 16.7593 18.0651 16.8056 17.955L7.01389 13.4387C6.62037 13.7141 6.18056 13.9296 5.69444 14.0853C5.20833 14.2417 4.69907 14.3199 4.16667 14.3199C3.00926 14.3199 2.02546 13.9986 1.21528 13.3561C0.405093 12.7135 0 11.9333 0 11.0153C0 10.0974 0.405093 9.31713 1.21528 8.67457C2.02546 8.03201 3.00926 7.71073 4.16667 7.71073C4.69907 7.71073 5.20833 7.78857 5.69444 7.94425C6.18056 8.10067 6.62037 8.31657 7.01389 8.59195L16.8056 4.07567C16.7593 3.96552 16.7245 3.84178 16.7014 3.70445C16.6782 3.5664 16.6667 3.43311 16.6667 3.3046C16.6667 2.38665 17.0718 1.6064 17.8819 0.963841C18.6921 0.32128 19.6759 0 20.8333 0C21.9907 0 22.9745 0.32128 23.7847 0.963841C24.5949 1.6064 25 2.38665 25 3.3046C25 4.22254 24.5949 5.00279 23.7847 5.64535C22.9745 6.28792 21.9907 6.6092 20.8333 6.6092C20.3009 6.6092 19.7917 6.53099 19.3056 6.37457C18.8194 6.21889 18.3796 6.00335 17.9861 5.72797L8.19444 10.2443C8.24074 10.3544 8.27546 10.4781 8.29861 10.6155C8.32176 10.7535 8.33333 10.8868 8.33333 11.0153C8.33333 11.1438 8.32176 11.2768 8.29861 11.4141C8.27546 11.5521 8.24074 11.6762 8.19444 11.7864L17.9861 16.3027C18.3796 16.0273 18.8194 15.8114 19.3056 15.655C19.7917 15.4993 20.3009 15.4215 20.8333 15.4215C21.9907 15.4215 22.9745 15.7427 23.7847 16.3853C24.5949 17.0279 25 17.8081 25 18.7261C25 19.644 24.5949 20.4242 23.7847 21.0668C22.9745 21.7094 21.9907 22.0307 20.8333 22.0307Z" fill="black"/>
</svg>
