<svg width="20" height="19" viewBox="0 0 20 19" fill="none" xmlns="http://www.w3.org/2000/svg">
<path d="M7.49984 16.5621C7.27882 16.5621 7.06686 16.4847 6.91058 16.347C6.7543 16.2093 6.6665 16.0225 6.6665 15.8277V13.6247H3.33317C2.89114 13.6247 2.46722 13.4699 2.15466 13.1945C1.8421 12.9191 1.6665 12.5455 1.6665 12.156V3.34371C1.6665 2.95418 1.8421 2.58061 2.15466 2.30518C2.46722 2.02974 2.89114 1.875 3.33317 1.875H16.6665C17.1085 1.875 17.5325 2.02974 17.845 2.30518C18.1576 2.58061 18.3332 2.95418 18.3332 3.34371V12.156C18.3332 12.5455 18.1576 12.9191 17.845 13.1945C17.5325 13.4699 17.1085 13.6247 16.6665 13.6247H11.5832L8.49984 16.3491C8.33317 16.4887 8.12484 16.5621 7.9165 16.5621H7.49984ZM8.33317 12.156V14.4178L10.8998 12.156H16.6665V3.34371H3.33317V12.156H8.33317Z" fill="black"/>
</svg>
