<svg width="60" height="60" viewBox="0 0 60 60" fill="none" xmlns="http://www.w3.org/2000/svg">
<path d="M32.5 30.5C32.5 29.1193 33.6193 28 35 28H47.5C48.8807 28 50 29.1193 50 30.5V48C50 49.3807 48.8807 50.5 47.5 50.5H35C33.6193 50.5 32.5 49.3807 32.5 48V30.5Z" stroke="#D1E5BB" stroke-width="4" strokeLinecap="round"/>
<path d="M9.5 12.5C9.5 11.1193 10.6193 10 12 10H22C23.3807 10 24.5 11.1193 24.5 12.5V30C24.5 31.3807 23.3807 32.5 22 32.5H12C10.6193 32.5 9.5 31.3807 9.5 30V12.5Z" stroke="#D1E5BB" stroke-width="4" strokeLinecap="round"/>
<path d="M9.5 43C9.5 41.6193 10.6193 40.5 12 40.5H22C23.3807 40.5 24.5 41.6193 24.5 43V48C24.5 49.3807 23.3807 50.5 22 50.5H12C10.6193 50.5 9.5 49.3807 9.5 48V43Z" stroke="#D1E5BB" stroke-width="4" strokeLinecap="round"/>
<path d="M32.5 12.5C32.5 11.1193 33.6193 10 35 10H47.5C48.8807 10 50 11.1193 50 12.5V17.5C50 18.8807 48.8807 20 47.5 20H35C33.6193 20 32.5 18.8807 32.5 17.5V12.5Z" stroke="#D1E5BB" stroke-width="4" strokeLinecap="round"/>
</svg>
