<svg width="24" height="24" viewBox="0 0 24 24" fill="none" xmlns="http://www.w3.org/2000/svg">
<path d="M20.75 20.75V3.25H3.25V20.75H20.75ZM20.75 0.75C21.413 0.75 22.0489 1.01339 22.5178 1.48223C22.9866 1.95107 23.25 2.58696 23.25 3.25V20.75C23.25 21.413 22.9866 22.0489 22.5178 22.5178C22.0489 22.9866 21.413 23.25 20.75 23.25H3.25C2.58696 23.25 1.95107 22.9866 1.48223 22.5178C1.01339 22.0489 0.75 21.413 0.75 20.75V3.25C0.75 2.58696 1.01339 1.95107 1.48223 1.48223C1.95107 1.01339 2.58696 0.75 3.25 0.75H20.75ZM17.875 8.6875L16.625 9.9375L14.0625 7.375L15.3125 6.125C15.575 5.85 16.0125 5.85 16.275 6.125L17.875 7.725C18.15 7.9875 18.15 8.425 17.875 8.6875ZM5.75 15.675L13.325 8.1L15.9 10.675L8.325 18.25H5.75V15.675Z" fill="black"/>
</svg>
