<svg width="48" height="48" viewBox="0 0 48 48" fill="none" xmlns="http://www.w3.org/2000/svg">
<path d="M22.0415 29.875H16.1665C12.5166 29.875 10.6917 29.875 9.25216 30.4713C7.33276 31.2664 5.80782 32.7913 5.01278 34.7107C4.4165 36.1503 4.4165 37.9751 4.4165 41.625M30.854 6.94441C33.7247 8.10646 35.7498 10.9209 35.7498 14.2083M23.9996 42.6042L27.9655 41.811C28.3111 41.7419 28.484 41.7073 28.6452 41.644C28.7884 41.588 28.9245 41.5151 29.0504 41.4272C29.1926 41.3281 29.3171 41.2036 29.5666 40.9541L42.604 27.9167C43.6858 26.8351 43.6856 25.0816 42.604 24C41.5224 22.9184 39.7689 22.9184 38.6873 24L25.6497 37.0376C25.4004 37.2869 25.2759 37.4114 25.1768 37.5536C25.0889 37.6795 25.016 37.8157 24.9598 37.9586C24.8968 38.12 24.8621 38.2927 24.793 38.6385L23.9996 42.6042ZM26.9373 14.2083C26.9373 18.5346 23.4302 22.0417 19.104 22.0417C14.7778 22.0417 11.2707 18.5346 11.2707 14.2083C11.2707 9.8821 14.7778 6.375 19.104 6.375C23.4302 6.375 26.9373 9.8821 26.9373 14.2083Z" stroke="#D1E5BB" stroke-width="3" stroke-linecap="round" stroke-linejoin="round"/>
</svg>
