<svg width="40" height="40" viewBox="0 0 40 40" fill="none" xmlns="http://www.w3.org/2000/svg">
<mask id="mask0_228_2025" style="mask-type:alpha" maskUnits="userSpaceOnUse" x="0" y="0" width="40" height="40">
<rect width="40" height="40" fill="#D9D9D9"/>
</mask>
<g mask="url(#mask0_228_2025)">
<path d="M18.3334 33.3334C17.8612 33.3334 17.4654 33.1736 17.1459 32.8542C16.8265 32.5347 16.6668 32.1389 16.6668 31.6667V21.6667L7.00009 9.33335C6.58343 8.7778 6.52093 8.19446 6.81259 7.58335C7.10426 6.97224 7.6112 6.66669 8.33343 6.66669H31.6668C32.389 6.66669 32.8959 6.97224 33.1876 7.58335C33.4793 8.19446 33.4168 8.7778 33.0001 9.33335L23.3334 21.6667V31.6667C23.3334 32.1389 23.1737 32.5347 22.8543 32.8542C22.5348 33.1736 22.139 33.3334 21.6668 33.3334H18.3334Z" fill="#1C1B1F"/>
</g>
</svg>
