<svg width="161" height="173" viewBox="0 0 161 173" fill="none" xmlns="http://www.w3.org/2000/svg">
<path fill-rule="evenodd" clip-rule="evenodd" d="M55.9969 33.613L56.1802 32.748C56.5302 31.1406 57.1035 28.7762 58.2869 26.4479C59.4935 24.0764 61.3635 21.6724 64.2969 20.0902C67.2202 18.5152 70.8835 17.9277 75.4135 18.5764C80.4135 19.2973 90.4569 21.0849 99.3302 25.965C108.254 30.8738 116.614 39.3184 116.614 53.3819C116.614 60.6479 114.014 68.4437 111.494 73.5256C110.284 75.9692 108.847 78.3047 107.407 79.5625C107.077 79.8509 106.607 80.2113 106.024 80.4636C104.423 86.1494 101.238 91.162 96.9034 94.8162C92.5686 98.4705 87.2957 100.588 81.8058 100.879C76.3158 101.17 70.8766 99.6206 66.2319 96.4425C61.5873 93.2644 57.9638 88.6127 55.8569 83.1235L55.7769 83.1379L54.5935 81.5845L54.5902 81.5773L54.5835 81.5701L54.5669 81.5448L54.5102 81.4727C54.2249 81.0889 53.9504 80.6958 53.6869 80.2942C52.9671 79.2148 52.2887 78.1037 51.6535 76.9639C50.0869 74.1599 48.1969 70.1665 46.9869 65.5063C45.7802 60.8461 45.2269 55.3822 46.4935 49.7453C47.7269 44.2597 50.6369 38.8607 55.9069 34.0383L55.9969 33.613ZM61.5969 79.1625C63.0426 83.6577 65.8187 87.5122 69.4954 90.1288C73.1721 92.7454 77.5442 93.9782 81.9345 93.6362C86.3247 93.2943 90.4882 91.3967 93.7801 88.2373C97.072 85.0779 99.3086 80.8331 100.144 76.1602L100.52 76.2972C100.507 76.0932 100.5 75.8889 100.5 75.6845C100.5 69.7196 99.7335 65.5567 99.0202 62.9617C98.8809 62.4566 98.7264 61.9566 98.5569 61.4624L98.4202 61.4696H98.2869C95.7943 61.5278 93.3025 61.3226 90.8469 60.8569C85.1235 59.8117 77.3735 57.2023 68.2469 51.1581C68.0469 51.6411 67.8469 52.1853 67.6469 52.7908C66.9935 54.7911 66.4569 57.1662 65.9935 59.6747C65.5835 61.8841 65.2469 64.1079 64.9269 66.1911L64.8035 67.0128C64.4602 69.2474 64.1169 71.4423 63.7169 73.0318C63.0169 75.7926 62.3035 77.7532 61.5969 79.1589V79.1625ZM56.9302 72.4479C55.4246 69.6536 54.2424 66.6698 53.4102 63.5636C52.4135 59.7216 52.0469 55.5624 52.9735 51.45C53.8735 47.4494 56.0502 43.2433 60.5269 39.2571C61.3335 38.6661 61.7002 37.8731 61.8002 37.6605V37.6569C61.9752 37.2672 62.1159 36.8605 62.2202 36.4423C62.3269 36.0314 62.4435 35.4692 62.5535 34.9646L62.6702 34.3987C62.9869 32.9462 63.3969 31.364 64.1302 29.9187C64.8435 28.5203 65.8202 27.3237 67.2735 26.5416C68.7335 25.7523 70.9935 25.2117 74.5335 25.7235C79.3769 26.4191 88.4869 28.0878 96.3069 32.3912C104.074 36.6621 109.947 43.128 109.947 53.3819C109.947 58.1033 108.48 63.4735 106.714 67.7084C106.38 64.9476 105.9 62.6914 105.407 60.9038C105.063 59.6261 104.634 58.377 104.124 57.1662C103.931 56.7175 103.72 56.2786 103.49 55.8507L103.434 55.7534L103.414 55.7174L103.404 55.6993L103.397 55.6885L102.164 53.6197L99.9569 54.0991L99.9102 54.1099L99.5869 54.1568C99.0908 54.2165 98.5925 54.2526 98.0935 54.2649C96.0383 54.3078 93.9842 54.134 91.9602 53.7459C86.5835 52.7656 78.6835 50.0949 69.0869 43.1857L66.7535 41.5025L64.8235 43.7011C63.2335 45.5104 62.1535 47.9792 61.3635 50.3832C60.5569 52.8521 59.9469 55.6092 59.4569 58.2547C59.0506 60.506 58.6817 62.765 58.3502 65.0305L58.2235 65.8379C57.8669 68.1842 57.5769 69.9754 57.2835 71.136C57.1741 71.5759 57.0563 72.0133 56.9302 72.4479Z" fill="#7CA153"/>
<path fill-rule="evenodd" clip-rule="evenodd" d="M60.2133 103.999C59.5067 102.478 58.6367 100.6 57.1667 100.964C39.1533 105.397 20.5 118.195 20.5 131.805V151.375H140.5V131.805C140.5 121.086 128.927 110.868 115.21 104.845L115.193 104.809C115.178 104.777 115.163 104.744 115.147 104.712L115.037 104.77C111.393 103.184 107.6 101.886 103.833 100.964C102.157 100.549 100.423 103.043 99.6667 104.604H60.5C60.4067 104.417 60.3133 104.208 60.2133 103.999ZM105.177 108.756C106.633 109.192 108.083 109.682 109.513 110.223C109.553 111.456 109.467 112.912 109.28 114.397C109.09 115.934 108.787 117.453 108.373 118.938H103.833C103.214 118.938 102.608 119.125 102.082 119.477C101.555 119.829 101.13 120.332 100.853 120.931L97.52 128.139C97.2882 128.639 97.1672 129.191 97.1667 129.75V136.959C97.1667 137.914 97.5179 138.831 98.143 139.507C98.7681 140.183 99.6159 140.563 100.5 140.563H107.167V133.354H103.833V130.601L105.893 126.146H115.107L117.167 130.601V133.354H113.833V140.563H120.5C121.384 140.563 122.232 140.183 122.857 139.507C123.482 138.831 123.833 137.914 123.833 136.959V129.75C123.833 129.191 123.712 128.639 123.48 128.139L120.147 120.931C119.87 120.332 119.445 119.829 118.918 119.477C118.392 119.125 117.786 118.938 117.167 118.938H115.28C115.692 117.03 115.968 115.092 116.107 113.139C119.357 114.8 122.377 116.707 124.993 118.768C131.4 123.821 133.833 128.55 133.833 131.805V144.167H27.1667V131.805C27.1667 128.55 29.6 123.821 36.0067 118.768C39.2267 116.227 43.07 113.928 47.19 112.025C47.3044 114.897 47.7307 117.745 48.46 120.509L48.4867 120.61C46.4939 121.973 45.0107 124.054 44.2991 126.485C43.5875 128.916 43.6933 131.54 44.5977 133.895C45.5022 136.249 47.1471 138.183 49.242 139.353C51.3369 140.524 53.747 140.856 56.0466 140.292C58.3461 139.727 60.3873 138.303 61.8095 136.269C63.2317 134.235 63.9434 131.723 63.819 129.177C63.6946 126.631 62.742 124.214 61.1296 122.354C59.5171 120.494 57.3484 119.309 55.0067 119.01C54.5807 117.502 54.2686 115.959 54.0733 114.397C53.8877 112.999 53.8108 111.587 53.8433 110.176C53.853 109.906 53.8697 109.637 53.8933 109.369C54.2933 109.235 54.6933 109.106 55.0933 108.983L56.4767 111.816H103.69L105.177 108.76V108.756ZM53.8333 133.412C55.6267 133.412 57.1667 131.826 57.1667 129.754C57.1667 127.685 55.6267 126.096 53.8333 126.096C52.04 126.096 50.5 127.681 50.5 129.754C50.5 131.823 52.04 133.412 53.8333 133.412Z" fill="#7CA153"/>
</svg>
