<svg width="161" height="173" viewBox="0 0 161 173" fill="none" xmlns="http://www.w3.org/2000/svg">
<path fill-rule="evenodd" clip-rule="evenodd" d="M113.833 57.6667C113.833 77.5725 98.91 93.7083 80.5 93.7083C62.09 93.7083 47.1667 77.5725 47.1667 57.6667C47.1667 37.7609 62.09 21.625 80.5 21.625C98.91 21.625 113.833 37.7609 113.833 57.6667ZM107.167 57.6667C107.167 65.3137 104.357 72.6476 99.3562 78.0549C94.3552 83.4622 87.5724 86.5 80.5 86.5C73.4276 86.5 66.6448 83.4622 61.6438 78.0549C56.6428 72.6476 53.8333 65.3137 53.8333 57.6667C53.8333 50.0196 56.6428 42.6857 61.6438 37.2784C66.6448 31.8711 73.4276 28.8333 80.5 28.8333C87.5724 28.8333 94.3552 31.8711 99.3562 37.2784C104.357 42.6857 107.167 50.0196 107.167 57.6667ZM60.2133 103.998L60.25 104.078L60.5 104.607H99.6633C100.427 103.043 102.157 100.549 103.833 100.964C107.6 101.89 111.393 103.18 115.037 104.77L115.147 104.712L115.183 104.791L115.21 104.845C128.927 110.871 140.5 121.086 140.5 131.804V151.375H20.5V131.804C20.5 118.199 39.1533 105.397 57.1667 100.964C58.6367 100.603 59.51 102.477 60.2133 103.998ZM109.513 110.226C108.083 109.685 106.637 109.196 105.177 108.759L103.69 111.816H56.4767L55.0967 108.979L53.8967 109.368C53.8733 109.606 53.8533 109.873 53.8433 110.176C53.8 111.419 53.8867 112.893 54.0767 114.393C54.2717 115.956 54.5838 117.5 55.01 119.01C57.3516 119.31 59.5198 120.495 61.1317 122.355C62.7437 124.216 63.6957 126.633 63.8196 129.179C63.9436 131.725 63.2315 134.236 61.8091 136.269C60.3867 138.303 58.3455 139.727 56.046 140.292C53.7465 140.856 51.3366 140.523 49.2419 139.352C47.1473 138.182 45.5025 136.248 44.5982 133.894C43.6938 131.539 43.5881 128.915 44.2996 126.484C45.0111 124.054 46.4941 121.973 48.4867 120.61L48.46 120.509C48.0158 118.824 47.685 117.106 47.47 115.369C47.3286 114.26 47.2352 113.144 47.19 112.025C43.07 113.928 39.2267 116.227 36.0067 118.765C29.6 123.825 27.1667 128.553 27.1667 131.804V144.167H133.833V131.804C133.833 128.55 131.4 123.821 124.993 118.768C122.2 116.596 119.225 114.711 116.107 113.138C115.971 115.092 115.695 117.031 115.28 118.938H117.167C117.786 118.938 118.392 119.124 118.918 119.477C119.445 119.829 119.87 120.332 120.147 120.931L123.48 128.139C123.713 128.64 123.833 129.191 123.833 129.75V136.958C123.833 137.914 123.482 138.831 122.857 139.507C122.232 140.183 121.384 140.562 120.5 140.562H113.833V133.354H117.167V130.601L115.107 126.146H105.893L103.833 130.601V133.354H107.167V140.562H100.5C99.6159 140.562 98.7681 140.183 98.143 139.507C97.5179 138.831 97.1667 137.914 97.1667 136.958V129.75C97.1667 129.191 97.2867 128.64 97.52 128.139L100.853 120.931C101.13 120.332 101.555 119.829 102.082 119.477C102.608 119.124 103.214 118.938 103.833 118.938H108.373C108.413 118.793 108.457 118.649 108.497 118.491C108.81 117.334 109.09 115.896 109.28 114.396C109.467 112.911 109.553 111.459 109.513 110.226ZM57.1667 129.75C57.1667 131.819 55.6267 133.408 53.8333 133.408C52.04 133.408 50.5 131.822 50.5 129.75C50.5 127.681 52.04 126.092 53.8333 126.092C55.6267 126.092 57.1667 127.678 57.1667 129.75Z" fill="#7CA153"/>
</svg>
