<svg width="161" height="173" viewBox="0 0 161 173" fill="none" xmlns="http://www.w3.org/2000/svg">
<path d="M80.5053 153.281H80.5002C64.004 153.281 48.3088 149.567 34.0843 142.86C34.7781 130.329 39.7385 118.53 47.9848 109.759C56.7059 100.482 68.39 95.3375 80.5002 95.3375C92.6104 95.3375 104.294 100.482 113.016 109.759C121.262 118.53 126.222 130.328 126.916 142.859C112.272 149.756 96.4725 153.305 80.5053 153.281ZM102 43.25C102 49.5753 99.6738 55.5918 95.6083 59.9875C91.5514 64.3741 86.1102 66.7812 80.5002 66.7812C74.8902 66.7812 69.449 64.3741 65.392 59.9875C61.3266 55.5918 59.0002 49.5753 59.0002 43.25C59.0002 36.9247 61.3266 30.9082 65.392 26.5125C69.449 22.1259 74.8902 19.7188 80.5002 19.7188C86.1102 19.7188 91.5514 22.1259 95.6083 26.5125C99.6738 30.9082 102 36.9247 102 43.25Z" stroke="#7CA153" strokeWidth="7" strokeLinecap="round" strokeLinejoin="round"/>
</svg>
