<svg width="89" height="96" viewBox="0 0 89 96" fill="none" xmlns="http://www.w3.org/2000/svg">
<path d="M52.5102 41.6003L33.9685 27.3203C31.3727 25.3203 27.9239 25.3203 25.3652 27.3203L6.8235 41.6003C4.85808 43.1203 3.7085 45.5203 3.7085 48.1203V80.0003C3.7085 82.2003 5.37725 84.0003 7.41683 84.0003H22.2502V60.0003H37.0835V84.0003H51.9168C53.9564 84.0003 55.6252 82.2003 55.6252 80.0003V48.1203C55.6252 45.5203 54.4756 43.1203 52.5102 41.6003Z" fill="black"/>
<path d="M77.9862 12H44.3887C40.3466 12 37.0833 15.52 37.0833 19.88L37.417 20.24C37.7137 20.44 38.0103 20.6 38.307 20.8L56.8487 35.08C59.667 37.24 61.6695 40.44 62.5595 44H70.4583V52H63.0416V60H70.4583V68H63.0416V84H77.9862C82.0283 84 85.2916 80.48 85.2916 76.12V19.88C85.2916 15.52 82.0283 12 77.9862 12ZM70.4583 36H63.0416V28H70.4583V36Z" fill="black"/>
</svg>
