<svg width="40" height="40" viewBox="0 0 40 40" fill="none" xmlns="http://www.w3.org/2000/svg">
<path d="M10.871 4.31262C14.8404 2.43052 23.3113 0.662709 32.8488 6.77384C32.9909 6.8649 33.1499 6.92754 33.3166 6.95818C33.4833 6.98883 33.6545 6.98688 33.8205 6.95244C33.9864 6.91801 34.1439 6.85176 34.2838 6.75749C34.4237 6.66321 34.5434 6.54276 34.636 6.403C34.7286 6.26324 34.7923 6.10692 34.8234 5.94295C34.8546 5.77899 34.8526 5.61059 34.8176 5.44738C34.7826 5.28416 34.7152 5.12933 34.6194 4.99172C34.5235 4.85411 34.401 4.73641 34.2589 4.64535C23.833 -2.03472 14.3807 -0.172936 9.75012 2.02666C9.59047 2.09468 9.44644 2.19372 9.32668 2.31784C9.20693 2.44196 9.11391 2.58861 9.05321 2.74897C8.99252 2.90933 8.9654 3.0801 8.97348 3.25102C8.98157 3.42195 9.02469 3.58951 9.10026 3.74363C9.17583 3.89776 9.28229 4.03528 9.41325 4.14793C9.54421 4.26058 9.69696 4.34604 9.86234 4.39918C10.0277 4.45233 10.2023 4.47205 10.3756 4.45718C10.549 4.4423 10.7174 4.39313 10.871 4.31262ZM6.20164 5.94073C6.29502 6.08012 6.35955 6.23625 6.39153 6.40018C6.42351 6.56412 6.42232 6.73264 6.38802 6.89612C6.35372 7.0596 6.28698 7.21483 6.19163 7.35292C6.09628 7.49102 5.97419 7.60927 5.83233 7.70092C4.48163 8.57466 2.96565 10.4568 2.38457 11.4321C2.20593 11.7116 1.92363 11.9117 1.59751 11.99C1.2714 12.0683 0.927101 12.0186 0.637602 11.8515C0.348103 11.6844 0.136161 11.4129 0.0467006 11.0947C-0.0427595 10.7765 -0.00270475 10.4366 0.158374 10.1469C0.855674 8.97852 2.61184 6.74336 4.41449 5.57752C4.70052 5.39284 5.04939 5.32736 5.38447 5.39546C5.71956 5.46356 6.01346 5.65967 6.20164 5.94073ZM20.6409 5.81373C20.2984 5.81373 19.97 5.94753 19.7278 6.1857C19.4857 6.42387 19.3496 6.74689 19.3496 7.08371C19.3496 7.42053 19.4857 7.74355 19.7278 7.98172C19.97 8.21989 20.2984 8.35369 20.6409 8.35369C24.9177 8.35369 34.8813 11.8487 37.4536 24.998C37.5316 25.3151 37.7307 25.5906 38.0096 25.7672C38.2885 25.9439 38.6259 26.0082 38.9517 25.9468C39.2776 25.8854 39.5669 25.703 39.7596 25.4374C39.9524 25.1719 40.0339 24.8435 39.9871 24.5205C37.1514 10.0123 25.9817 5.81373 20.6435 5.81373H20.6409ZM17.658 21.7164C15.4112 23.5096 13.7144 28.5362 19.0991 38.1143C19.2649 38.4094 19.3046 38.7571 19.2097 39.081C19.1148 39.4049 18.8929 39.6785 18.5929 39.8415C18.2929 40.0045 17.9393 40.0436 17.61 39.9503C17.2807 39.8569 17.0025 39.6387 16.8368 39.3437C11.2893 29.4734 12.2449 22.7679 16.0284 19.7454C19.706 16.8066 25.5065 18.0817 27.0896 23.1083C27.2988 23.7763 27.4667 24.5764 27.632 25.3765L27.7172 25.7752C27.9238 26.7404 28.1511 27.7462 28.4868 28.7597C29.1557 30.7739 30.2327 32.7525 32.3116 34.2612C32.5873 34.4613 32.7709 34.7609 32.822 35.0941C32.8731 35.4273 32.7875 35.7668 32.5841 36.0379C32.3807 36.309 32.0761 36.4896 31.7373 36.5398C31.3985 36.5901 31.0533 36.5059 30.7776 36.3059C28.1253 34.3806 26.803 31.8711 26.0308 29.5496C25.6888 28.4804 25.4077 27.3933 25.1889 26.2934L25.101 25.8692C24.9719 25.1919 24.8116 24.5206 24.6207 23.8576C23.6161 20.6648 20.0082 19.8368 17.658 21.7164ZM33.5513 24.6881C33.5472 24.5181 33.5083 24.3506 33.4371 24.1955C33.3659 24.0405 33.2637 23.9012 33.1367 23.7857C33.0097 23.6703 32.8603 23.5811 32.6976 23.5235C32.5349 23.4659 32.362 23.441 32.1893 23.4504C32.0166 23.4598 31.8476 23.5032 31.6923 23.578C31.5369 23.6528 31.3985 23.7576 31.2851 23.8861C31.1717 24.0145 31.0858 24.1641 31.0323 24.3259C30.9788 24.4877 30.959 24.6583 30.9739 24.8278C31.227 29.4201 34.1143 31.8025 35.7413 32.3181C36.0665 32.4182 36.4187 32.3878 36.7213 32.2336C37.0238 32.0794 37.252 31.8138 37.3563 31.4947C37.4606 31.1757 37.4324 30.8291 37.2779 30.5304C37.1234 30.2317 36.8552 30.0051 36.5316 29.9001C35.9453 29.7147 33.7501 28.2517 33.5513 24.6881ZM21.9322 26.0292C21.9322 25.6924 21.7962 25.3694 21.554 25.1312C21.3118 24.893 20.9834 24.7592 20.6409 24.7592C20.2984 24.7592 19.97 24.893 19.7278 25.1312C19.4857 25.3694 19.3496 25.6924 19.3496 26.0292C19.3496 28.6835 19.6828 30.7307 20.4782 32.7296C21.2633 34.6955 22.472 36.5497 24.1067 38.8255C24.2023 38.9668 24.3257 39.0878 24.4696 39.1814C24.6135 39.275 24.775 39.3393 24.9445 39.3705C25.1141 39.4017 25.2883 39.3991 25.4569 39.363C25.6255 39.3268 25.785 39.2579 25.926 39.1601C26.067 39.0623 26.1866 38.9378 26.2779 38.7938C26.3691 38.6497 26.4301 38.4892 26.4572 38.3217C26.4843 38.1541 26.477 37.9829 26.4357 37.8181C26.3944 37.6534 26.3199 37.4985 26.2167 37.3625C24.5949 35.1019 23.5437 33.4637 22.8826 31.8C22.2318 30.1719 21.9322 28.4549 21.9322 26.0292ZM14.107 16.606C9.67522 19.9791 7.12879 27.1265 11.4675 35.6175C11.6217 35.9187 11.6478 36.2677 11.5403 36.5877C11.4328 36.9078 11.2004 37.1728 10.8942 37.3244C10.588 37.476 10.2332 37.5017 9.90772 37.396C9.58225 37.2902 9.31282 37.0616 9.15871 36.7605C4.32926 27.3068 7.00999 18.798 12.5238 14.5969C15.264 12.5116 18.6962 11.5083 22.1491 12.0569C25.615 12.6106 28.9594 14.7086 31.5575 18.5516C31.6515 18.6905 31.7167 18.8463 31.7494 19.01C31.7821 19.1737 31.7818 19.3421 31.7483 19.5057C31.7149 19.6693 31.649 19.8248 31.5544 19.9633C31.4599 20.1018 31.3385 20.2207 31.1973 20.3131C31.056 20.4055 30.8976 20.4696 30.7312 20.5018C30.5647 20.534 30.3934 20.5336 30.2271 20.5007C30.0608 20.4678 29.9027 20.403 29.7619 20.31C29.621 20.217 29.5002 20.0977 29.4062 19.9587C27.1465 16.6136 24.3934 14.9906 21.7359 14.5664C19.0629 14.1397 16.3383 14.9042 14.107 16.606ZM15.3647 8.9963C15.5241 8.93926 15.6705 8.8519 15.7956 8.73921C15.9206 8.62652 16.0219 8.49071 16.0936 8.33953C16.1653 8.18834 16.2061 8.02475 16.2135 7.85809C16.2209 7.69142 16.1949 7.52495 16.1369 7.36818C16.0789 7.21142 15.9901 7.06742 15.8755 6.94441C15.7609 6.8214 15.6228 6.72179 15.4691 6.65127C15.3154 6.58075 15.149 6.5407 14.9796 6.5334C14.8101 6.5261 14.6408 6.5517 14.4814 6.60874C2.3949 10.9267 -0.471779 22.3209 0.643901 30.0195C0.692532 30.3529 0.873858 30.6537 1.14799 30.8557C1.42212 31.0577 1.7666 31.1443 2.10565 31.0964C2.4447 31.0486 2.75054 30.8703 2.9559 30.6007C3.16125 30.3311 3.2493 29.9923 3.20067 29.6588C2.19087 22.7019 4.80704 12.7681 15.3647 8.9963Z" fill="black"/>
</svg>
