<svg width="155" height="159" viewBox="0 0 155 159" fill="none" xmlns="http://www.w3.org/2000/svg">
<path d="M42.17 17.4996C57.54 10.0896 90.34 3.12965 127.27 27.1896C127.82 27.5482 128.436 27.7948 129.081 27.9154C129.727 28.0361 130.39 28.0284 131.032 27.8928C131.675 27.7573 132.285 27.4964 132.826 27.1253C133.368 26.7541 133.832 26.2799 134.19 25.7296C134.549 25.1794 134.795 24.5639 134.916 23.9184C135.036 23.2728 135.029 22.6099 134.893 21.9673C134.758 21.3247 134.497 20.7151 134.126 20.1733C133.755 19.6315 133.28 19.1682 132.73 18.8096C92.36 -7.49036 55.76 -0.160355 37.83 8.49965C37.2118 8.76742 36.6542 9.15735 36.1904 9.64603C35.7267 10.1347 35.3665 10.7121 35.1315 11.3434C34.8965 11.9748 34.7915 12.6471 34.8228 13.32C34.8541 13.993 35.0211 14.6527 35.3137 15.2595C35.6063 15.8663 36.0185 16.4077 36.5256 16.8512C37.0327 17.2948 37.6242 17.6312 38.2645 17.8405C38.9049 18.0497 39.581 18.1273 40.2521 18.0688C40.9232 18.0102 41.5756 17.8166 42.17 17.4996ZM24.09 23.9096C24.4516 24.4584 24.7015 25.0731 24.8253 25.7185C24.9491 26.364 24.9445 27.0275 24.8117 27.6711C24.6789 28.3147 24.4205 28.9259 24.0513 29.4696C23.6821 30.0133 23.2093 30.4788 22.66 30.8396C17.43 34.2796 11.56 41.6896 9.31002 45.5296C8.61831 46.6301 7.52523 47.418 6.26248 47.7262C4.99974 48.0345 3.66659 47.8389 2.54563 47.1808C1.42467 46.5228 0.604007 45.4541 0.257611 44.2013C-0.088786 42.9485 0.0663092 41.6101 0.690019 40.4697C3.39002 35.8697 10.19 27.0696 17.17 22.4796C18.2776 21.7525 19.6284 21.4947 20.9259 21.7629C22.2234 22.031 23.3614 22.8031 24.09 23.9096ZM80 23.4096C78.6739 23.4096 77.4022 23.9364 76.4645 24.8741C75.5268 25.8118 75 27.0836 75 28.4096C75 29.7357 75.5268 31.0075 76.4645 31.9452C77.4022 32.8829 78.6739 33.4096 80 33.4096C96.56 33.4096 135.14 47.1696 145.1 98.9396C145.402 100.188 146.173 101.273 147.253 101.968C148.333 102.664 149.639 102.917 150.901 102.675C152.163 102.433 153.283 101.715 154.029 100.67C154.776 99.6241 155.091 98.3314 154.91 97.0596C143.93 39.9396 100.68 23.4096 80.01 23.4096H80ZM68.45 86.0196C59.75 93.0796 53.18 112.87 74.03 150.58C74.6718 151.741 74.8259 153.11 74.4583 154.386C74.0908 155.661 73.2317 156.738 72.07 157.38C70.9084 158.021 69.5393 158.176 68.2641 157.808C66.9888 157.44 65.9118 156.581 65.27 155.42C43.79 116.56 47.49 90.1596 62.14 78.2596C76.38 66.6896 98.84 71.7096 104.97 91.4996C105.78 94.1296 106.43 97.2796 107.07 100.43L107.4 102C108.2 105.8 109.08 109.76 110.38 113.75C112.97 121.68 117.14 129.47 125.19 135.41C126.258 136.197 126.968 137.377 127.166 138.689C127.364 140 127.033 141.337 126.245 142.405C125.457 143.472 124.278 144.183 122.966 144.381C121.654 144.579 120.318 144.247 119.25 143.46C108.98 135.88 103.86 126 100.87 116.86C99.546 112.65 98.4576 108.37 97.61 104.04L97.27 102.37C96.7698 99.7029 96.1492 97.0602 95.41 94.4496C91.52 81.8796 77.55 78.6196 68.45 86.0196ZM129.99 97.7196C129.974 97.0501 129.824 96.3906 129.548 95.7803C129.272 95.17 128.877 94.6213 128.385 94.1668C127.893 93.7123 127.315 93.3612 126.684 93.1344C126.054 92.9077 125.385 92.8098 124.716 92.8467C124.048 92.8835 123.393 93.0543 122.792 93.349C122.19 93.6436 121.654 94.0561 121.215 94.5619C120.776 95.0677 120.443 95.6565 120.236 96.2935C120.029 96.9304 119.952 97.6024 120.01 98.2696C120.99 116.35 132.17 125.73 138.47 127.76C139.729 128.154 141.093 128.034 142.264 127.427C143.436 126.82 144.32 125.774 144.723 124.518C145.127 123.262 145.018 121.897 144.42 120.721C143.822 119.545 142.783 118.653 141.53 118.24C139.26 117.51 130.76 111.75 129.99 97.7196ZM85 103C85 101.674 84.4732 100.402 83.5356 99.4641C82.5979 98.5264 81.3261 97.9996 80 97.9996C78.6739 97.9996 77.4022 98.5264 76.4645 99.4641C75.5268 100.402 75 101.674 75 103C75 113.45 76.29 121.51 79.37 129.38C82.41 137.12 87.09 144.42 93.42 153.38C93.79 153.936 94.2677 154.412 94.8249 154.781C95.382 155.149 96.0074 155.402 96.664 155.525C97.3207 155.648 97.9953 155.638 98.6479 155.496C99.3006 155.353 99.9182 155.082 100.464 154.697C101.01 154.312 101.473 153.822 101.827 153.255C102.18 152.688 102.416 152.056 102.521 151.396C102.626 150.736 102.598 150.062 102.438 149.414C102.278 148.765 101.99 148.155 101.59 147.62C95.31 138.72 91.24 132.27 88.68 125.72C86.16 119.31 85 112.55 85 103ZM54.7 65.8996C37.54 79.1796 27.68 107.32 44.48 140.75C45.0768 141.935 45.1781 143.309 44.7618 144.569C44.3454 145.83 43.4455 146.873 42.26 147.47C41.0745 148.066 39.7005 148.168 38.4402 147.751C37.18 147.335 36.1368 146.435 35.54 145.25C16.84 108.03 27.22 74.5296 48.57 57.9896C59.18 49.7796 72.47 45.8296 85.84 47.9896C99.26 50.1696 112.21 58.4296 122.27 73.5596C122.634 74.1066 122.886 74.7199 123.013 75.3644C123.14 76.0089 123.138 76.6721 123.009 77.3161C122.879 77.96 122.624 78.5722 122.258 79.1176C121.892 79.6629 121.422 80.1309 120.875 80.4947C120.328 80.8584 119.715 81.1109 119.07 81.2376C118.426 81.3644 117.763 81.363 117.119 81.2334C116.475 81.1039 115.862 80.8488 115.317 80.4827C114.772 80.1166 114.304 79.6466 113.94 79.0996C105.19 65.9296 94.53 59.5396 84.24 57.8696C73.89 56.1896 63.34 59.1996 54.7 65.8996ZM59.57 35.9396C60.1872 35.7151 60.7542 35.3712 61.2385 34.9275C61.7228 34.4838 62.1149 33.9491 62.3926 33.3539C62.6702 32.7587 62.8279 32.1146 62.8566 31.4584C62.8854 30.8023 62.7846 30.1469 62.56 29.5296C62.3355 28.9124 61.9915 28.3455 61.5479 27.8612C61.1042 27.3769 60.5695 26.9847 59.9743 26.7071C59.379 26.4294 58.735 26.2718 58.0788 26.243C57.4226 26.2143 56.7672 26.3151 56.15 26.5396C9.35001 43.5396 -1.74998 88.3996 2.57002 118.71C2.75832 120.022 3.46043 121.207 4.52189 122.002C5.58334 122.797 6.9172 123.138 8.23002 122.95C9.54284 122.761 10.7271 122.059 11.5222 120.998C12.3174 119.936 12.6583 118.602 12.47 117.29C8.56002 89.8996 18.69 50.7896 59.57 35.9396Z" fill="#8EBF59"/>
</svg>
