<svg width="168" height="134" viewBox="0 0 168 134" fill="none" xmlns="http://www.w3.org/2000/svg">
<path d="M33.9999 75.333H109V58.6664H33.9999V75.333ZM33.9999 50.333H109V33.6664H33.9999V50.333ZM17.3332 133.666C12.7499 133.666 8.82485 132.033 5.55818 128.766C2.29152 125.5 0.660962 121.577 0.666518 117V16.9997C0.666518 12.4164 2.29985 8.49135 5.56652 5.22469C8.83319 1.95802 12.7554 0.327466 17.3332 0.333022H150.667C155.25 0.333022 159.175 1.96635 162.442 5.23302C165.708 8.49969 167.339 12.4219 167.333 16.9997V117C167.333 121.583 165.7 125.508 162.433 128.775C159.167 132.041 155.244 133.672 150.667 133.666H17.3332ZM17.3332 117H150.667V16.9997H17.3332V117Z" fill="#6FB54E"/>
</svg>
