<svg width="23" height="16" viewBox="0 0 23 16" fill="none" xmlns="http://www.w3.org/2000/svg">
<path d="M20.8335 0H2.16683C1.81321 0 1.47407 0.140476 1.22402 0.390524C0.973972 0.640573 0.833496 0.979711 0.833496 1.33333V14.6667C0.833496 15.0203 0.973972 15.3594 1.22402 15.6095C1.47407 15.8595 1.81321 16 2.16683 16H20.8335C21.1871 16 21.5263 15.8595 21.7763 15.6095C22.0264 15.3594 22.1668 15.0203 22.1668 14.6667V1.33333C22.1668 0.979711 22.0264 0.640573 21.7763 0.390524C21.5263 0.140476 21.1871 0 20.8335 0ZM19.8068 14.6667H3.2735L7.94016 9.84L6.98016 8.91333L2.16683 13.8933V2.34667L10.4535 10.5933C10.7033 10.8417 11.0412 10.9811 11.3935 10.9811C11.7457 10.9811 12.0837 10.8417 12.3335 10.5933L20.8335 2.14V13.8067L15.9268 8.9L14.9868 9.84L19.8068 14.6667ZM3.04016 1.33333H19.7535L11.3935 9.64667L3.04016 1.33333Z" fill="white"/>
</svg>
