<svg width="40" height="40" viewBox="0 0 40 40" fill="none" xmlns="http://www.w3.org/2000/svg">
<path d="M18.375 35V31.4167C16.9028 31.0833 15.6317 30.4444 14.5617 29.5C13.4917 28.5556 12.7073 27.2222 12.2084 25.5L15.2917 24.25C15.7084 25.5833 16.3267 26.5972 17.1467 27.2917C17.9667 27.9861 19.0428 28.3333 20.375 28.3333C21.5139 28.3333 22.4795 28.0761 23.2717 27.5617C24.0639 27.0472 24.4595 26.2489 24.4584 25.1667C24.4584 24.1944 24.1528 23.4239 23.5417 22.855C22.9306 22.2861 21.5139 21.64 19.2917 20.9167C16.9028 20.1667 15.2639 19.2706 14.375 18.2283C13.4862 17.1861 13.0417 15.9156 13.0417 14.4167C13.0417 12.6111 13.625 11.2083 14.7917 10.2083C15.9584 9.20833 17.1528 8.63889 18.375 8.5V5H21.7084V8.5C23.0973 8.72222 24.2434 9.22944 25.1467 10.0217C26.05 10.8139 26.7095 11.7789 27.125 12.9167L24.0417 14.25C23.7084 13.3611 23.2362 12.6944 22.625 12.25C22.0139 11.8056 21.1806 11.5833 20.125 11.5833C18.9028 11.5833 17.9723 11.8544 17.3334 12.3967C16.6945 12.9389 16.375 13.6122 16.375 14.4167C16.375 15.3333 16.7917 16.0556 17.625 16.5833C18.4584 17.1111 19.9028 17.6667 21.9584 18.25C23.875 18.8056 25.3267 19.6878 26.3134 20.8967C27.3 22.1056 27.7928 23.5011 27.7917 25.0833C27.7917 27.0556 27.2084 28.5556 26.0417 29.5833C24.875 30.6111 23.4306 31.25 21.7084 31.5V35H18.375Z" fill="black"/>
</svg>
