<svg width="63" height="40" viewBox="0 0 63 40" fill="none" xmlns="http://www.w3.org/2000/svg">
<path d="M31.5 30.5882C33.4335 30.5882 35.3235 29.9672 36.9312 28.8038C38.5388 27.6403 39.7918 25.9867 40.5317 24.0519C41.2716 22.1172 41.4652 19.9883 41.088 17.9343C40.7108 15.8804 39.7798 13.9938 38.4126 12.513C37.0454 11.0322 35.3035 10.0238 33.4072 9.61521C31.5108 9.20666 29.5452 9.41635 27.7589 10.2177C25.9726 11.0191 24.4459 12.3763 23.3717 14.1175C22.2975 15.8587 21.7241 17.9058 21.7241 20C21.7241 22.8082 22.7541 25.5013 24.5874 27.487C26.4208 29.4727 28.9073 30.5882 31.5 30.5882ZM31.5 11.7647C33.0038 11.7647 34.4739 12.2477 35.7243 13.1526C36.9746 14.0575 37.9492 15.3437 38.5247 16.8485C39.1002 18.3533 39.2507 20.0091 38.9574 21.6066C38.664 23.2041 37.9398 24.6715 36.8765 25.8232C35.8131 26.975 34.4583 27.7593 32.9834 28.0771C31.5084 28.3948 29.9796 28.2317 28.5903 27.6084C27.2009 26.9851 26.0134 25.9296 25.178 24.5753C24.3425 23.221 23.8966 21.6288 23.8966 20C23.8966 17.8159 24.6976 15.7212 26.1236 14.1768C27.5495 12.6324 29.4834 11.7647 31.5 11.7647ZM61.9138 0H1.08621C0.798127 0 0.521846 0.123949 0.318143 0.34458C0.114439 0.565212 0 0.864451 0 1.17647V38.8235C0 39.1356 0.114439 39.4348 0.318143 39.6554C0.521846 39.8761 0.798127 40 1.08621 40H61.9138C62.2019 40 62.4782 39.8761 62.6819 39.6554C62.8856 39.4348 63 39.1356 63 38.8235V1.17647C63 0.864451 62.8856 0.565212 62.6819 0.34458C62.4782 0.123949 62.2019 0 61.9138 0ZM2.17241 13.9C4.76488 13.239 7.13587 11.8084 9.01912 9.76861C10.9024 7.72886 12.2233 5.16084 12.8335 2.35294H50.1665C50.7767 5.16084 52.0976 7.72886 53.9809 9.76861C55.8641 11.8084 58.2351 13.239 60.8276 13.9V26.1C58.2351 26.761 55.8641 28.1916 53.9809 30.2314C52.0976 32.2711 50.7767 34.8392 50.1665 37.6471H12.8335C12.2233 34.8392 10.9024 32.2711 9.01912 30.2314C7.13587 28.1916 4.76488 26.761 2.17241 26.1V13.9ZM60.8276 11.4706C58.8207 10.8594 56.9926 9.69984 55.5185 8.10325C54.0444 6.50665 52.9738 4.52656 52.4095 2.35294H60.8276V11.4706ZM10.5905 2.35294C10.0262 4.52656 8.95563 6.50665 7.48153 8.10325C6.00744 9.69984 4.17927 10.8594 2.17241 11.4706V2.35294H10.5905ZM2.17241 28.5294C4.17927 29.1406 6.00744 30.3002 7.48153 31.8968C8.95563 33.4933 10.0262 35.4734 10.5905 37.6471H2.17241V28.5294ZM52.4095 37.6471C52.9738 35.4734 54.0444 33.4933 55.5185 31.8968C56.9926 30.3002 58.8207 29.1406 60.8276 28.5294V37.6471H52.4095Z" fill="black"/>
</svg>
