<svg width="40" height="40" viewBox="0 0 40 40" fill="none" xmlns="http://www.w3.org/2000/svg">
<mask id="mask0_228_2037" style="mask-type:alpha" maskUnits="userSpaceOnUse" x="0" y="0" width="40" height="40">
<rect width="40" height="40" fill="#D9D9D9"/>
</mask>
<g mask="url(#mask0_228_2037)">
<path d="M20 20C18.1666 20 16.5972 19.3472 15.2916 18.0417C13.9861 16.7361 13.3333 15.1667 13.3333 13.3334C13.3333 11.5 13.9861 9.93058 15.2916 8.62502C16.5972 7.31946 18.1666 6.66669 20 6.66669C21.8333 6.66669 23.4027 7.31946 24.7083 8.62502C26.0138 9.93058 26.6666 11.5 26.6666 13.3334C26.6666 15.1667 26.0138 16.7361 24.7083 18.0417C23.4027 19.3472 21.8333 20 20 20ZM6.66663 33.3334V28.6667C6.66663 27.7222 6.90968 26.8542 7.39579 26.0625C7.8819 25.2709 8.52774 24.6667 9.33329 24.25C11.0555 23.3889 12.8055 22.7431 14.5833 22.3125C16.3611 21.882 18.1666 21.6667 20 21.6667C21.8333 21.6667 23.6388 21.882 25.4166 22.3125C27.1944 22.7431 28.9444 23.3889 30.6666 24.25C31.4722 24.6667 32.118 25.2709 32.6041 26.0625C33.0902 26.8542 33.3333 27.7222 33.3333 28.6667V33.3334H6.66663ZM9.99996 30H30V28.6667C30 28.3611 29.9236 28.0834 29.7708 27.8334C29.618 27.5834 29.4166 27.3889 29.1666 27.25C27.6666 26.5 26.1527 25.9375 24.625 25.5625C23.0972 25.1875 21.5555 25 20 25C18.4444 25 16.9027 25.1875 15.375 25.5625C13.8472 25.9375 12.3333 26.5 10.8333 27.25C10.5833 27.3889 10.3819 27.5834 10.2291 27.8334C10.0763 28.0834 9.99996 28.3611 9.99996 28.6667V30ZM20 16.6667C20.9166 16.6667 21.7013 16.3403 22.3541 15.6875C23.0069 15.0347 23.3333 14.25 23.3333 13.3334C23.3333 12.4167 23.0069 11.632 22.3541 10.9792C21.7013 10.3264 20.9166 10 20 10C19.0833 10 18.2986 10.3264 17.6458 10.9792C16.993 11.632 16.6666 12.4167 16.6666 13.3334C16.6666 14.25 16.993 15.0347 17.6458 15.6875C18.2986 16.3403 19.0833 16.6667 20 16.6667Z" fill="#1C1B1F"/>
</g>
</svg>
