<svg width="26" height="26" viewBox="0 0 26 26" fill="none" xmlns="http://www.w3.org/2000/svg">
<path d="M13 0.5C19.9038 0.5 25.5 6.09625 25.5 13C25.5 19.9037 19.9038 25.5 13 25.5C11.005 25.5028 9.03854 25.026 7.26626 24.11L2.48376 25.4438C2.21694 25.5182 1.93511 25.5204 1.66717 25.4501C1.39922 25.3798 1.15478 25.2395 0.958897 25.0436C0.763015 24.8477 0.622731 24.6033 0.552419 24.3353C0.482108 24.0674 0.484296 23.7856 0.55876 23.5188L1.89376 18.74C0.975451 16.9662 0.497414 14.9974 0.500011 13C0.500011 6.09625 6.09626 0.5 13 0.5ZM13 2.375C10.1821 2.375 7.47958 3.49442 5.487 5.48699C3.49443 7.47956 2.37501 10.1821 2.37501 13C2.37501 14.8375 2.84126 16.6037 3.71626 18.1712L3.90376 18.5087L2.51376 23.4888L7.49751 22.0987L7.83501 22.2863C9.25299 23.0746 10.8327 23.5278 12.4529 23.611C14.0732 23.6942 15.691 23.4053 17.1823 22.7664C18.6736 22.1274 19.9988 21.1555 21.0562 19.925C22.1136 18.6945 22.8752 17.2383 23.2826 15.6678C23.69 14.0974 23.7323 12.4546 23.4063 10.8652C23.0803 9.27592 22.3947 7.78236 21.4021 6.49908C20.4094 5.21581 19.136 4.1769 17.6796 3.46203C16.2232 2.74716 14.6224 2.37531 13 2.375ZM13 17.375C13.3315 17.375 13.6495 17.5067 13.8839 17.7411C14.1183 17.9755 14.25 18.2935 14.25 18.625C14.25 18.9565 14.1183 19.2745 13.8839 19.5089C13.6495 19.7433 13.3315 19.875 13 19.875C12.6685 19.875 12.3505 19.7433 12.1161 19.5089C11.8817 19.2745 11.75 18.9565 11.75 18.625C11.75 18.2935 11.8817 17.9755 12.1161 17.7411C12.3505 17.5067 12.6685 17.375 13 17.375ZM13 6.4375C13.9117 6.4375 14.786 6.79966 15.4307 7.44432C16.0753 8.08898 16.4375 8.96332 16.4375 9.875C16.4375 11.1375 16.0663 11.8425 15.1238 12.8238L14.9125 13.0375C14.135 13.815 13.9375 14.145 13.9375 14.875C13.9375 15.1236 13.8387 15.3621 13.6629 15.5379C13.4871 15.7137 13.2487 15.8125 13 15.8125C12.7514 15.8125 12.5129 15.7137 12.3371 15.5379C12.1613 15.3621 12.0625 15.1236 12.0625 14.875C12.0625 13.6125 12.4338 12.9075 13.3763 11.9262L13.5875 11.7125C14.365 10.935 14.5625 10.605 14.5625 9.875C14.5612 9.47534 14.4068 9.09138 14.1311 8.80207C13.8554 8.51276 13.4793 8.3401 13.0801 8.31961C12.681 8.29911 12.2892 8.43234 11.9853 8.69189C11.6814 8.95144 11.4885 9.31758 11.4463 9.715L11.4375 9.875C11.4375 10.1236 11.3387 10.3621 11.1629 10.5379C10.9871 10.7137 10.7487 10.8125 10.5 10.8125C10.2514 10.8125 10.0129 10.7137 9.8371 10.5379C9.66128 10.3621 9.56251 10.1236 9.56251 9.875C9.56251 8.96332 9.92467 8.08898 10.5693 7.44432C11.214 6.79966 12.0883 6.4375 13 6.4375Z" fill="black"/>
</svg>
