<svg width="50" height="50" viewBox="0 0 50 50" fill="none" xmlns="http://www.w3.org/2000/svg">
<path d="M14.5835 31.25H18.7502C18.7502 33.5 21.6043 35.4167 25.0002 35.4167C28.396 35.4167 31.2502 33.5 31.2502 31.25C31.2502 28.9583 29.0835 28.125 24.5002 27.0208C20.0835 25.9167 14.5835 24.5417 14.5835 18.75C14.5835 15.0208 17.646 11.8542 21.8752 10.7917V6.25H28.1252V10.7917C32.3543 11.8542 35.4168 15.0208 35.4168 18.75H31.2502C31.2502 16.5 28.396 14.5833 25.0002 14.5833C21.6043 14.5833 18.7502 16.5 18.7502 18.75C18.7502 21.0417 20.9168 21.875 25.5002 22.9792C29.9168 24.0833 35.4168 25.4583 35.4168 31.25C35.4168 34.9792 32.3543 38.1458 28.1252 39.2083V43.75H21.8752V39.2083C17.646 38.1458 14.5835 34.9792 14.5835 31.25Z" fill="#D1E5BB"/>
</svg>
