<svg width="30" height="34" viewBox="0 0 30 34" fill="none" xmlns="http://www.w3.org/2000/svg">
<path d="M4.16665 33.6663C3.24998 33.6663 2.46498 33.3397 1.81165 32.6863C1.15832 32.033 0.832205 31.2486 0.833316 30.333V6.99968H4.16665V30.333H22.5V33.6663H4.16665ZM10.8333 26.9997C9.91665 26.9997 9.13165 26.673 8.47832 26.0197C7.82498 25.3663 7.49887 24.5819 7.49998 23.6663V3.66634C7.49998 2.74968 7.82665 1.96468 8.47998 1.31134C9.13332 0.65801 9.91776 0.3319 10.8333 0.333011H25.8333C26.75 0.333011 27.535 0.659677 28.1883 1.31301C28.8416 1.96634 29.1678 2.75079 29.1666 3.66634V23.6663C29.1666 24.583 28.84 25.368 28.1866 26.0213C27.5333 26.6747 26.7489 27.0008 25.8333 26.9997H10.8333Z" fill="black" fill-opacity="0.86"/>
</svg>
