<svg width="46" height="46" viewBox="0 0 46 46" fill="none" xmlns="http://www.w3.org/2000/svg">
<path d="M23 0.290619C10.4578 0.290619 0.290649 10.4578 0.290649 23C0.290649 35.5422 10.4578 45.7094 23 45.7094C35.5422 45.7094 45.7094 35.5422 45.7094 23C45.7094 10.4578 35.5422 0.290619 23 0.290619ZM24.961 35.3125V38.5109H21.9016V35.3484C16.8813 34.6609 14.6828 30.5359 14.6828 30.5359L17.8078 27.9219C17.8078 27.9219 19.8032 31.3953 23.4125 31.3953C25.4063 31.3953 26.9188 30.3281 26.9188 28.5047C26.9188 24.2422 15.4344 24.7594 15.4344 16.8516C15.4344 13.4141 18.1531 10.9375 21.9 10.3516V7.15624H24.9594V10.3516C27.5719 10.6953 30.6656 12.0703 30.6656 15.0281V17.2969H26.6094V16.1969C26.6094 15.0625 25.1641 14.3062 23.5469 14.3062C21.4844 14.3062 19.9735 15.3375 19.9735 16.7812C19.9735 21.1469 31.4578 20.0812 31.4578 28.3672C31.4578 31.7734 28.9141 34.7266 24.961 35.3125Z" fill="black"/>
</svg>
