<svg width="38" height="42" viewBox="0 0 38 42" fill="none" xmlns="http://www.w3.org/2000/svg">
<path d="M35.6667 41.8337H2.33333C1.7808 41.8337 1.25089 41.6142 0.860194 41.2235C0.469493 40.8328 0.25 40.3029 0.25 39.7503V2.25033C0.25 1.69779 0.469493 1.16789 0.860194 0.777186C1.25089 0.386486 1.7808 0.166992 2.33333 0.166992H35.6667C36.2192 0.166992 36.7491 0.386486 37.1398 0.777186C37.5305 1.16789 37.75 1.69779 37.75 2.25033V39.7503C37.75 40.3029 37.5305 40.8328 37.1398 41.2235C36.7491 41.6142 36.2192 41.8337 35.6667 41.8337ZM33.5833 37.667V4.33366H4.41667V37.667H33.5833ZM8.58333 8.50033H16.9167V16.8337H8.58333V8.50033ZM8.58333 21.0003H29.4167V25.167H8.58333V21.0003ZM8.58333 29.3337H29.4167V33.5003H8.58333V29.3337ZM21.0833 10.5837H29.4167V14.7503H21.0833V10.5837Z" fill="white"/>
</svg>
