<svg width="50" height="50" viewBox="0 0 50 50" fill="none" xmlns="http://www.w3.org/2000/svg">
<g clip-path="url(#clip0_2154_5470)">
<path d="M34.9723 17.1113L26.7639 25.1808C25.8785 24.7543 24.8708 24.6545 23.9189 24.899C22.9669 25.1436 22.1321 25.7168 21.5619 26.5173C20.9918 27.3179 20.7229 28.2942 20.8029 29.2737C20.8829 30.2533 21.3066 31.1731 21.9991 31.8705C22.6916 32.5679 23.6083 32.9981 24.5873 33.085C25.5663 33.1719 26.5445 32.9099 27.349 32.3454C28.1535 31.7809 28.7326 30.9502 28.9839 30C29.2352 29.0498 29.1425 28.0414 28.7223 27.153L36.9445 19.0836L34.9723 17.1113Z" fill="white"/>
<path d="M24.9998 5.90236C20.6286 5.89735 16.3472 7.14338 12.6614 9.49329C8.97553 11.8432 6.03913 15.1988 4.199 19.1639C2.35887 23.1289 1.69187 27.5377 2.27677 31.8697C2.86167 36.2016 4.67404 40.2756 7.49983 43.6107L7.9165 44.0968H42.0832L42.4998 43.6107C45.3256 40.2756 47.138 36.2016 47.7229 31.8697C48.3078 27.5377 47.6408 23.1289 45.8007 19.1639C43.9605 15.1988 41.0241 11.8432 37.3383 9.49329C33.6524 7.14338 29.3711 5.89735 24.9998 5.90236ZM40.7498 41.319H9.24983C6.75772 38.2006 5.25364 34.4089 4.93039 30.4301H9.72205V27.6524H4.93039C5.16298 23.2423 6.84769 19.0329 9.72205 15.6801L13.1248 19.0829L15.0832 17.1246L11.7082 13.7079C15.0183 10.7823 19.2033 9.03401 23.6109 8.73569V13.5968H26.3887V8.74958C31.2574 9.10266 35.8312 11.2157 39.256 14.6942C42.6808 18.1727 44.7225 22.7787 44.9998 27.6524H40.1665V30.4301H45.0693C44.746 34.4089 43.2419 38.2006 40.7498 41.319Z" fill="white"/>
</g>
<defs>
<clipPath id="clip0_2154_5470">
<rect width="50" height="50" fill="white"/>
</clipPath>
</defs>
</svg>
