<svg width="42" height="42" viewBox="0 0 42 42" fill="none" xmlns="http://www.w3.org/2000/svg">
<path d="M39.75 20.9996C39.7562 24.722 38.649 28.3612 36.5708 31.4496C34.857 34.0057 32.5397 36.1002 29.8239 37.5478C27.1082 38.9955 24.0775 39.7517 21 39.7496C17.9225 39.7517 14.8918 38.9955 12.1761 37.5478C9.46027 36.1002 7.14301 34.0057 5.42917 31.4496C3.79735 29.0171 2.75813 26.2361 2.3948 23.3296C2.03148 20.4232 2.35416 17.472 3.33697 14.7126C4.31979 11.9533 5.93541 9.46267 8.05431 7.4403C10.1732 5.41793 12.7365 3.92012 15.5386 3.06693C18.3407 2.21375 21.3037 2.02892 24.1901 2.52728C27.0765 3.02563 29.806 4.1933 32.1598 5.93668C34.5136 7.68006 36.4262 9.95065 37.7443 12.5664C39.0624 15.1822 39.7493 18.0704 39.75 20.9996Z" stroke="white" stroke-width="3"/>
<mask id="path-2-inside-1_2154_10709" fill="white">
<path d="M23.6043 14.7497C23.6043 16.1872 22.4377 17.3538 21.0002 17.3538V20.4788C22.5196 20.4788 23.9769 19.8752 25.0513 18.8008C26.1257 17.7264 26.7293 16.2691 26.7293 14.7497H23.6043ZM21.0002 17.3538C19.5627 17.3538 18.396 16.1872 18.396 14.7497H15.271C15.271 16.2691 15.8746 17.7264 16.949 18.8008C18.0235 19.8752 19.4807 20.4788 21.0002 20.4788V17.3538ZM18.396 14.7497C18.396 13.3122 19.5627 12.1455 21.0002 12.1455V9.02051C19.4807 9.02051 18.0235 9.62411 16.949 10.6985C15.8746 11.773 15.271 13.2302 15.271 14.7497H18.396ZM21.0002 12.1455C22.4377 12.1455 23.6043 13.3122 23.6043 14.7497H26.7293C26.7293 13.2302 26.1257 11.773 25.0513 10.6985C23.9769 9.62411 22.5196 9.02051 21.0002 9.02051V12.1455ZM6.76266 33.1997L5.26475 32.7538L5.021 33.5705L5.57725 34.2163L6.76266 33.1997ZM35.2377 33.1997L36.4252 34.2184L36.9793 33.5726L36.7356 32.7538L35.2377 33.1997ZM14.7502 28.8122H27.2502V25.6872H14.7502V28.8122ZM14.7502 25.6872C12.6191 25.6873 10.545 26.375 8.83606 27.6482C7.12713 28.9213 5.87464 30.7119 5.26475 32.7538L8.26058 33.6455C8.67836 32.2489 9.53544 31.0243 10.7045 30.1536C11.8737 29.2829 13.2924 28.8124 14.7502 28.8122V25.6872ZM21.0002 38.1872C18.5198 38.19 16.0683 37.6547 13.8149 36.6181C11.5615 35.5815 9.55988 34.0683 7.94808 32.183L5.57725 34.2163C7.48237 36.4434 9.84775 38.2329 12.5103 39.4576C15.1729 40.6822 18.0694 41.315 21.0002 41.3122V38.1872ZM27.2502 28.8122C30.3127 28.8122 32.9064 30.8497 33.7397 33.6455L36.7356 32.7538C36.1257 30.7119 34.8732 28.9213 33.1643 27.6482C31.4553 26.375 29.3812 25.6873 27.2502 25.6872V28.8122ZM34.0522 32.183C32.4404 34.0683 30.4388 35.5815 28.1854 36.6181C25.932 37.6547 23.4805 38.19 21.0002 38.1872V41.3122C23.9309 41.315 26.8274 40.6822 29.49 39.4576C32.1526 38.2329 34.52 36.4455 36.4252 34.2184L34.0522 32.183Z"/>
</mask>
<path d="M23.6043 14.7497C23.6043 16.1872 22.4377 17.3538 21.0002 17.3538V20.4788C22.5196 20.4788 23.9769 19.8752 25.0513 18.8008C26.1257 17.7264 26.7293 16.2691 26.7293 14.7497H23.6043ZM21.0002 17.3538C19.5627 17.3538 18.396 16.1872 18.396 14.7497H15.271C15.271 16.2691 15.8746 17.7264 16.949 18.8008C18.0235 19.8752 19.4807 20.4788 21.0002 20.4788V17.3538ZM18.396 14.7497C18.396 13.3122 19.5627 12.1455 21.0002 12.1455V9.02051C19.4807 9.02051 18.0235 9.62411 16.949 10.6985C15.8746 11.773 15.271 13.2302 15.271 14.7497H18.396ZM21.0002 12.1455C22.4377 12.1455 23.6043 13.3122 23.6043 14.7497H26.7293C26.7293 13.2302 26.1257 11.773 25.0513 10.6985C23.9769 9.62411 22.5196 9.02051 21.0002 9.02051V12.1455ZM6.76266 33.1997L5.26475 32.7538L5.021 33.5705L5.57725 34.2163L6.76266 33.1997ZM35.2377 33.1997L36.4252 34.2184L36.9793 33.5726L36.7356 32.7538L35.2377 33.1997ZM14.7502 28.8122H27.2502V25.6872H14.7502V28.8122ZM14.7502 25.6872C12.6191 25.6873 10.545 26.375 8.83606 27.6482C7.12713 28.9213 5.87464 30.7119 5.26475 32.7538L8.26058 33.6455C8.67836 32.2489 9.53544 31.0243 10.7045 30.1536C11.8737 29.2829 13.2924 28.8124 14.7502 28.8122V25.6872ZM21.0002 38.1872C18.5198 38.19 16.0683 37.6547 13.8149 36.6181C11.5615 35.5815 9.55988 34.0683 7.94808 32.183L5.57725 34.2163C7.48237 36.4434 9.84775 38.2329 12.5103 39.4576C15.1729 40.6822 18.0694 41.315 21.0002 41.3122V38.1872ZM27.2502 28.8122C30.3127 28.8122 32.9064 30.8497 33.7397 33.6455L36.7356 32.7538C36.1257 30.7119 34.8732 28.9213 33.1643 27.6482C31.4553 26.375 29.3812 25.6873 27.2502 25.6872V28.8122ZM34.0522 32.183C32.4404 34.0683 30.4388 35.5815 28.1854 36.6181C25.932 37.6547 23.4805 38.19 21.0002 38.1872V41.3122C23.9309 41.315 26.8274 40.6822 29.49 39.4576C32.1526 38.2329 34.52 36.4455 36.4252 34.2184L34.0522 32.183Z" fill="black"/>
<path d="M19.5002 17.3538V20.4788H22.5002V17.3538H19.5002ZM26.7293 13.2497H23.6043V16.2497H26.7293V13.2497ZM18.396 13.2497H15.271V16.2497H18.396V13.2497ZM22.5002 12.1455V9.02051H19.5002V12.1455H22.5002ZM28.7502 28.8122V25.6872H25.7502V28.8122H28.7502ZM13.2502 25.6872V28.8122H16.2502V25.6872H13.2502ZM22.5002 41.3122V38.1872H19.5002V41.3122H22.5002ZM26.7293 14.7497H29.7293H26.7293ZM15.271 14.7497H12.271H15.271ZM6.76266 33.1997L8.71569 35.4769L12.893 31.8942L7.61847 30.3243L6.76266 33.1997ZM5.26475 32.7538L2.39023 31.8953L2.39006 31.8958L5.26475 32.7538ZM5.021 33.5705L2.14631 32.7125L1.67698 34.2849L2.74789 35.5283L5.021 33.5705ZM35.2377 33.1997L34.3819 30.3243L29.1082 31.894L33.2843 35.4766L35.2377 33.1997ZM36.9793 33.5726L39.2561 35.5262L40.3214 34.2846L39.8546 32.7166L36.9793 33.5726ZM36.7356 32.7538L39.6109 31.8978L39.6101 31.8953L36.7356 32.7538ZM14.7502 28.8122V25.8122H14.7496L14.7502 28.8122ZM27.2502 25.6872L27.2503 22.6872H27.2502V25.6872ZM14.7502 25.6872V22.6872H14.75L14.7502 25.6872ZM8.26058 33.6455L7.40478 36.5208L10.2761 37.3755L11.1347 34.5053L8.26058 33.6455ZM21.0002 38.1872L21.0036 35.1872L20.9967 35.1872L21.0002 38.1872ZM7.94808 32.183L10.2284 30.2336L8.27583 27.9497L5.99505 29.9058L7.94808 32.183ZM21.0002 41.3122L21.003 38.3122L20.9973 38.3122L21.0002 41.3122ZM33.7397 33.6455L30.8647 34.5024L31.7213 37.3763L34.5955 36.5208L33.7397 33.6455ZM34.0522 32.183L36.0054 29.9059L33.7246 27.9495L31.772 30.2336L34.0522 32.183ZM20.6043 14.7497C20.6043 14.5303 20.7808 14.3538 21.0002 14.3538V20.3538C24.0945 20.3538 26.6043 17.844 26.6043 14.7497H20.6043ZM21.0002 23.4788C23.3153 23.4788 25.5356 22.5592 27.1726 20.9221L22.93 16.6795C22.4182 17.1913 21.724 17.4788 21.0002 17.4788V23.4788ZM27.1726 20.9221C28.8097 19.2851 29.7293 17.0648 29.7293 14.7497H23.7293C23.7293 15.4735 23.4418 16.1677 22.93 16.6795L27.1726 20.9221ZM21.0002 14.3538C21.2195 14.3538 21.396 14.5303 21.396 14.7497H15.396C15.396 17.844 17.9058 20.3538 21.0002 20.3538V14.3538ZM12.271 14.7497C12.271 17.0648 13.1907 19.2851 14.8277 20.9221L19.0703 16.6795C18.5585 16.1677 18.271 15.4735 18.271 14.7497H12.271ZM14.8277 20.9221C16.4647 22.5592 18.685 23.4788 21.0002 23.4788V17.4788C20.2763 17.4788 19.5822 17.1913 19.0703 16.6795L14.8277 20.9221ZM21.396 14.7497C21.396 14.969 21.2195 15.1455 21.0002 15.1455V9.14551C17.9058 9.14551 15.396 11.6553 15.396 14.7497H21.396ZM21.0002 6.02051C18.685 6.02051 16.4647 6.94018 14.8277 8.57722L19.0703 12.8199C19.5822 12.308 20.2763 12.0205 21.0002 12.0205V6.02051ZM14.8277 8.57722C13.1907 10.2143 12.271 12.4346 12.271 14.7497H18.271C18.271 14.0259 18.5585 13.3317 19.0703 12.8199L14.8277 8.57722ZM21.0002 15.1455C20.7808 15.1455 20.6043 14.969 20.6043 14.7497H26.6043C26.6043 11.6553 24.0945 9.14551 21.0002 9.14551V15.1455ZM29.7293 14.7497C29.7293 12.4346 28.8097 10.2143 27.1726 8.57722L22.93 12.8199C23.4418 13.3317 23.7293 14.0259 23.7293 14.7497H29.7293ZM27.1726 8.57722C25.5356 6.94018 23.3153 6.02051 21.0002 6.02051V12.0205C21.724 12.0205 22.4182 12.308 22.93 12.8199L27.1726 8.57722ZM7.61847 30.3243L6.12055 29.8785L4.40894 35.6292L5.90686 36.075L7.61847 30.3243ZM2.39006 31.8958L2.14631 32.7125L7.89568 34.4285L8.13943 33.6118L2.39006 31.8958ZM2.74789 35.5283L3.30414 36.1741L7.85035 32.2585L7.2941 31.6127L2.74789 35.5283ZM7.53028 36.4935L8.71569 35.4769L4.80963 30.9225L3.62422 31.9391L7.53028 36.4935ZM33.2843 35.4766L34.4718 36.4953L38.3785 31.9415L37.191 30.9227L33.2843 35.4766ZM38.7019 36.172L39.2561 35.5262L34.7026 31.619L34.1484 32.2648L38.7019 36.172ZM39.8546 32.7166L39.6109 31.8978L33.8603 33.6098L34.104 34.4286L39.8546 32.7166ZM35.8798 29.8785L34.3819 30.3243L36.0935 36.075L37.5914 35.6292L35.8798 29.8785ZM14.7502 31.8122H27.2502V25.8122H14.7502V31.8122ZM27.2502 22.6872H14.7502V28.6872H27.2502V22.6872ZM14.75 22.6872C11.9732 22.6873 9.27055 23.5835 7.04376 25.2424L10.6284 30.0539C11.8194 29.1666 13.265 28.6872 14.7503 28.6872L14.75 22.6872ZM7.04376 25.2424C4.81698 26.9014 3.18494 29.2346 2.39023 31.8953L8.13926 33.6124C8.56434 32.1893 9.43729 30.9413 10.6284 30.0539L7.04376 25.2424ZM4.40894 35.6292L7.40478 36.5208L9.11638 30.7702L6.12055 29.8785L4.40894 35.6292ZM11.1347 34.5053C11.3675 33.7271 11.8451 33.0448 12.4965 32.5596L8.91259 27.7476C7.2258 29.0039 5.98919 30.7707 5.38642 32.7857L11.1347 34.5053ZM12.4965 32.5596C13.1479 32.0744 13.9385 31.8123 14.7507 31.8122L14.7496 25.8122C12.6464 25.8126 10.5994 26.4913 8.91259 27.7476L12.4965 32.5596ZM20.9967 35.1872C18.9503 35.1895 16.9278 34.7479 15.0687 33.8926L12.5612 39.3435C15.2088 40.5615 18.0892 41.1905 21.0036 41.1872L20.9967 35.1872ZM15.0687 33.8926C13.2096 33.0374 11.5581 31.789 10.2284 30.2336L5.66781 34.1325C7.56162 36.3476 9.91351 38.1256 12.5612 39.3435L15.0687 33.8926ZM5.99505 29.9058L3.62421 31.9391L7.53028 36.4935L9.90111 34.4602L5.99505 29.9058ZM3.29757 36.1665C5.48389 38.7222 8.19904 40.7767 11.2567 42.1831L13.7639 36.732C11.4965 35.6891 9.48085 34.1645 7.85692 32.2662L3.29757 36.1665ZM11.2567 42.1831C14.3134 43.589 17.6385 44.3154 21.003 44.3122L20.9973 38.3122C18.5003 38.3146 16.0325 37.7755 13.7639 36.732L11.2567 42.1831ZM27.2502 31.8122C28.9509 31.8122 30.4003 32.9443 30.8647 34.5024L36.6148 32.7886C35.4125 28.755 31.6744 25.8122 27.2502 25.8122V31.8122ZM34.5955 36.5208L37.5914 35.6292L35.8798 29.8785L32.8839 30.7702L34.5955 36.5208ZM39.6101 31.8953C38.8154 29.2346 37.1833 26.9014 34.9566 25.2424L31.372 30.0539C32.563 30.9413 33.436 32.1893 33.8611 33.6124L39.6101 31.8953ZM34.9566 25.2424C32.7298 23.5835 30.0271 22.6873 27.2503 22.6872L27.25 28.6872C28.7353 28.6872 30.1809 29.1666 31.372 30.0539L34.9566 25.2424ZM31.772 30.2336C30.4422 31.789 28.7908 33.0374 26.9317 33.8926L29.4392 39.3435C32.0868 38.1256 34.4387 36.3476 36.3325 34.1325L31.772 30.2336ZM26.9317 33.8926C25.0725 34.7479 23.05 35.1895 21.0036 35.1872L20.9967 41.1872C23.9111 41.1905 26.7915 40.5615 29.4392 39.3435L26.9317 33.8926ZM20.9973 44.3122C24.3618 44.3154 27.6869 43.589 30.7436 42.1831L28.2364 36.732C25.9678 37.7755 23.5 38.3146 21.003 38.3122L20.9973 44.3122ZM30.7436 42.1831C33.7994 40.7776 36.5172 38.7259 38.7048 36.1686L34.1455 32.2683C32.5229 34.165 30.5057 35.6883 28.2364 36.732L30.7436 42.1831ZM38.3784 31.9414L36.0054 29.9059L32.099 34.4601L34.472 36.4955L38.3784 31.9414Z" fill="white" mask="url(#path-2-inside-1_2154_10709)"/>
</svg>
