<svg width="48" height="40" viewBox="0 0 48 40" fill="none" xmlns="http://www.w3.org/2000/svg">
<path d="M38.1281 23.175V3.66407C38.1281 1.73594 36.5656 0.17032 34.6343 0.17032H4.05466C2.12498 0.168757 0.560913 1.73438 0.560913 3.66407V23.175C0.560913 25.1047 2.12498 26.6688 4.05466 26.6688H9.88123V34.6953L18.7937 26.6688H34.6328C36.5656 26.6688 38.1281 25.1047 38.1281 23.175ZM43.9453 7.84063H39.5734C39.5734 7.84063 39.5734 23.4219 39.5734 24.8859C39.5734 26.35 37.6734 28.2328 36.2093 28.2328C34.7453 28.2328 19.1078 28.3188 19.1078 28.3188C19.1078 30.2484 20.6718 31.4219 22.6015 31.4219H29.3343L38.1187 39.3938L38.1078 31.4219H43.9453C45.8765 31.4219 47.439 30.2484 47.439 28.3188V11.2375C47.439 9.30938 45.8765 7.84063 43.9453 7.84063Z" fill="black"/>
</svg>
