<svg width="22" height="38" viewBox="0 0 22 38" fill="none" xmlns="http://www.w3.org/2000/svg">
<path d="M0.583496 25.25H4.75016C4.75016 27.5 7.60433 29.4167 11.0002 29.4167C14.396 29.4167 17.2502 27.5 17.2502 25.25C17.2502 22.9583 15.0835 22.125 10.5002 21.0208C6.0835 19.9167 0.583496 18.5417 0.583496 12.75C0.583496 9.02083 3.646 5.85417 7.87516 4.79167V0.25H14.1252V4.79167C18.3543 5.85417 21.4168 9.02083 21.4168 12.75H17.2502C17.2502 10.5 14.396 8.58333 11.0002 8.58333C7.60433 8.58333 4.75016 10.5 4.75016 12.75C4.75016 15.0417 6.91683 15.875 11.5002 16.9792C15.9168 18.0833 21.4168 19.4583 21.4168 25.25C21.4168 28.9792 18.3543 32.1458 14.1252 33.2083V37.75H7.87516V33.2083C3.646 32.1458 0.583496 28.9792 0.583496 25.25Z" fill="white"/>
</svg>
