<svg width="50" height="50" viewBox="0 0 50 50" fill="none" xmlns="http://www.w3.org/2000/svg">
<path d="M43.8122 31.25H18.3656L18.9338 34.375H42.2339C43.5708 34.375 44.5617 35.7716 44.2654 37.2382L43.7865 39.6089C45.409 40.4949 46.5278 42.366 46.5278 44.5312C46.5278 47.5783 44.3126 50.0434 41.5951 49.9994C39.0063 49.9575 36.8773 47.594 36.8074 44.6823C36.7692 43.0918 37.3356 41.6502 38.266 40.6249H20.0674C20.9681 41.6177 21.5278 43.0006 21.5278 44.5312C21.5278 47.638 19.225 50.1397 16.4349 49.9939C13.9575 49.8645 11.9426 47.6126 11.8124 44.8263C11.7119 42.6745 12.7183 40.7779 14.2474 39.7886L8.14957 6.25H2.08333C0.932726 6.25 0 5.20068 0 3.90625V2.34375C0 1.04932 0.932726 0 2.08333 0H10.9834C11.9731 0 12.8261 0.783301 13.0245 1.87402L13.8201 6.25H47.9158C49.2527 6.25 50.2436 7.64658 49.9473 9.11318L45.8437 29.4257C45.6282 30.4928 44.785 31.25 43.8122 31.25ZM34.9852 18.75H31.25V12.8906C31.25 12.2435 30.7836 11.7188 30.2083 11.7188H28.125C27.5497 11.7188 27.0833 12.2435 27.0833 12.8906V18.75H23.3482C22.4201 18.75 21.9554 20.0123 22.6116 20.7505L28.4301 27.2963C28.8369 27.7539 29.4964 27.7539 29.9033 27.2963L35.7218 20.7505C36.378 20.0123 35.9132 18.75 34.9852 18.75Z" fill="black"/>
</svg>
