<svg width="40" height="42" viewBox="0 0 40 42" fill="none" xmlns="http://www.w3.org/2000/svg">
<path fill-rule="evenodd" clip-rule="evenodd" d="M6.5 0.166672C4.8424 0.166672 3.25269 0.825152 2.08058 1.99725C0.908481 3.16936 0.25 4.75907 0.25 6.41667V35.5833C0.25 37.2409 0.908481 38.8307 2.08058 40.0028C3.25269 41.1749 4.8424 41.8333 6.5 41.8333H19C20.6576 41.8333 22.2473 41.1749 23.4194 40.0028C24.5915 38.8307 25.25 37.2409 25.25 35.5833V6.41667C25.25 4.75907 24.5915 3.16936 23.4194 1.99725C22.2473 0.825152 20.6576 0.166672 19 0.166672H6.5ZM27.9438 11.1938C28.3344 10.8032 28.8642 10.5838 29.4167 10.5838C29.9691 10.5838 30.4989 10.8032 30.8896 11.1938L39.2229 19.5271C39.6135 19.9178 39.8329 20.4476 39.8329 21C39.8329 21.5524 39.6135 22.0822 39.2229 22.4729L30.8896 30.8063C30.4967 31.1858 29.9704 31.3957 29.4242 31.391C28.8779 31.3862 28.3554 31.1671 27.9691 30.7809C27.5829 30.3946 27.3638 29.8721 27.359 29.3258C27.3543 28.7796 27.5643 28.2533 27.9438 27.8604L32.7208 23.0833H14.8333C14.2808 23.0833 13.7509 22.8638 13.3602 22.4731C12.9695 22.0824 12.75 21.5525 12.75 21C12.75 20.4475 12.9695 19.9176 13.3602 19.5269C13.7509 19.1362 14.2808 18.9167 14.8333 18.9167H32.7208L27.9438 14.1396C27.5532 13.7489 27.3338 13.2191 27.3338 12.6667C27.3338 12.1142 27.5532 11.5844 27.9438 11.1938Z" fill="black"/>
</svg>
