<svg width="42" height="38" viewBox="0 0 42 38" fill="none" xmlns="http://www.w3.org/2000/svg">
<path d="M29.3333 10.6663H37.6667C38.8173 10.6663 39.75 11.5991 39.75 12.7497V35.6663L32.8062 29.8976C32.4323 29.5868 31.96 29.4163 31.4735 29.4163H14.75C13.5994 29.4163 12.6667 28.4836 12.6667 27.333V21.083M29.3333 10.6663V4.41634C29.3333 3.26576 28.4006 2.33301 27.25 2.33301H4.33333C3.18275 2.33301 2.25 3.26576 2.25 4.41634V27.3336L9.19377 21.5638C9.56781 21.2532 10.0401 21.083 10.5264 21.083H12.6667M29.3333 10.6663V18.9997C29.3333 20.1503 28.4006 21.083 27.25 21.083H12.6667" stroke="white" strokeWidth="3" strokeLinecap="round" strokeLinejoin="round"/>
</svg>
