<svg width="38" height="42" viewBox="0 0 38 42" fill="none" xmlns="http://www.w3.org/2000/svg">
<path d="M35.6667 41.8333H2.33333C1.7808 41.8333 1.25089 41.6138 0.860194 41.2231C0.469493 40.8324 0.25 40.3025 0.25 39.75V2.24999C0.25 1.69746 0.469493 1.16755 0.860194 0.776851C1.25089 0.38615 1.7808 0.166656 2.33333 0.166656H35.6667C36.2192 0.166656 36.7491 0.38615 37.1398 0.776851C37.5305 1.16755 37.75 1.69746 37.75 2.24999V39.75C37.75 40.3025 37.5305 40.8324 37.1398 41.2231C36.7491 41.6138 36.2192 41.8333 35.6667 41.8333ZM8.58333 8.49999V16.8333H16.9167V8.49999H8.58333ZM8.58333 21V25.1667H29.4167V21H8.58333ZM8.58333 29.3333V33.5H29.4167V29.3333H8.58333ZM21.0833 10.5833V14.75H29.4167V10.5833H21.0833Z" fill="black"/>
</svg>
