<svg width="42" height="46" viewBox="0 0 42 46" fill="none" xmlns="http://www.w3.org/2000/svg">
<path d="M18.8335 0V8.33333H14.6668L23.0002 16.6667L31.3335 8.33333H27.1668V0M0.0834961 4.16667V8.33333H4.25016L11.7502 24.1667L8.8335 29.1667C8.62516 29.7917 8.41683 30.4167 8.41683 31.25C8.41683 33.5417 10.2918 35.4167 12.5835 35.4167H37.5835V31.25H13.4168C13.2085 31.25 13.0002 31.0417 13.0002 30.8333V30.625L14.8752 27.0833H30.2918C31.7502 27.0833 33.2085 26.25 33.8335 25L41.9585 10.4167L38.4168 8.33333L30.2918 22.9167H15.7085L6.9585 4.16667M12.5835 37.5C10.2918 37.5 8.41683 39.375 8.41683 41.6667C8.41683 43.9583 10.2918 45.8333 12.5835 45.8333C14.8752 45.8333 16.7502 43.9583 16.7502 41.6667C16.7502 39.375 14.8752 37.5 12.5835 37.5ZM33.4168 37.5C31.1252 37.5 29.2502 39.375 29.2502 41.6667C29.2502 43.9583 31.1252 45.8333 33.4168 45.8333C35.7085 45.8333 37.5835 43.9583 37.5835 41.6667C37.5835 39.375 35.7085 37.5 33.4168 37.5Z" fill="white"/>
</svg>
