<svg width="201" height="108" viewBox="0 0 201 108" fill="none" xmlns="http://www.w3.org/2000/svg">
<path d="M100.5 82.125C106.647 82.125 112.655 80.4755 117.766 77.3851C122.877 74.2947 126.86 69.9021 129.212 64.763C131.565 59.6238 132.18 53.9688 130.981 48.5131C129.782 43.0574 126.822 38.046 122.476 34.1126C118.129 30.1793 112.592 27.5006 106.563 26.4154C100.534 25.3302 94.2857 25.8872 88.6069 28.0159C82.9281 30.1446 78.0744 33.7495 74.6595 38.3746C71.2446 42.9997 69.4219 48.4374 69.4219 54C69.4219 61.4592 72.6962 68.6129 78.5245 73.8874C84.3527 79.1618 92.2576 82.125 100.5 82.125ZM100.5 32.125C105.281 32.125 109.954 33.4079 113.929 35.8116C117.904 38.2153 121.002 41.6317 122.832 45.6288C124.661 49.6259 125.14 54.0243 124.207 58.2676C123.275 62.5109 120.973 66.4087 117.592 69.468C114.212 72.5272 109.905 74.6106 105.216 75.4547C100.527 76.2987 95.6667 75.8655 91.2498 74.2099C86.833 72.5542 83.0579 69.7504 80.4018 66.1531C77.7458 62.5558 76.3281 58.3265 76.3281 54C76.3281 48.1984 78.8748 42.6344 83.4079 38.532C87.941 34.4297 94.0892 32.125 100.5 32.125ZM197.188 0.875H3.8125C2.89667 0.875 2.01836 1.20424 1.37077 1.79029C0.723185 2.37634 0.359375 3.1712 0.359375 4V104C0.359375 104.829 0.723185 105.624 1.37077 106.21C2.01836 106.796 2.89667 107.125 3.8125 107.125H197.188C198.103 107.125 198.982 106.796 199.629 106.21C200.277 105.624 200.641 104.829 200.641 104V4C200.641 3.1712 200.277 2.37634 199.629 1.79029C198.982 1.20424 198.103 0.875 197.188 0.875ZM7.26562 37.7969C15.5072 36.0412 23.0448 32.2409 29.0318 26.8229C35.0187 21.4048 39.218 14.5835 41.158 7.125H159.842C161.782 14.5835 165.981 21.4048 171.968 26.8229C177.955 32.2409 185.493 36.0412 193.734 37.7969V70.2031C185.493 71.9588 177.955 75.7591 171.968 81.1771C165.981 86.5952 161.782 93.4165 159.842 100.875H41.158C39.218 93.4165 35.0187 86.5952 29.0318 81.1771C23.0448 75.7591 15.5072 71.9588 7.26562 70.2031V37.7969ZM193.734 31.3438C187.354 29.7202 181.543 26.6402 176.856 22.3993C172.17 18.1583 168.767 12.8987 166.973 7.125H193.734V31.3438ZM34.0273 7.125C32.2333 12.8987 28.8299 18.1583 24.1437 22.3993C19.4574 26.6402 13.6455 29.7202 7.26562 31.3438V7.125H34.0273ZM7.26562 76.6562C13.6455 78.2798 19.4574 81.3598 24.1437 85.6007C28.8299 89.8417 32.2333 95.1013 34.0273 100.875H7.26562V76.6562ZM166.973 100.875C168.767 95.1013 172.17 89.8417 176.856 85.6007C181.543 81.3598 187.354 78.2798 193.734 76.6562V100.875H166.973Z" fill="#8EBF59"/>
</svg>
