<svg width="51" height="51" viewBox="0 0 51 51" fill="none" xmlns="http://www.w3.org/2000/svg">
<path d="M47.0752 9.59091H38.0752V6.86364C38.0752 5.1759 37.3377 3.55728 36.0249 2.36387C34.7122 1.17045 32.9317 0.5 31.0752 0.5H19.0752C17.2187 0.5 15.4382 1.17045 14.1254 2.36387C12.8127 3.55728 12.0752 5.1759 12.0752 6.86364V9.59091H3.0752C2.27955 9.59091 1.51648 9.87825 0.953875 10.3897C0.391266 10.9012 0.0751953 11.5949 0.0751953 12.3182C0.0751953 13.0415 0.391266 13.7352 0.953875 14.2467C1.51648 14.7581 2.27955 15.0455 3.0752 15.0455H4.0752V45.9545C4.0752 47.1601 4.60198 48.3162 5.53966 49.1687C6.47734 50.0211 7.74911 50.5 9.0752 50.5H41.0752C42.4013 50.5 43.673 50.0211 44.6107 49.1687C45.5484 48.3162 46.0752 47.1601 46.0752 45.9545V15.0455H47.0752C47.8708 15.0455 48.6339 14.7581 49.1965 14.2467C49.7591 13.7352 50.0752 13.0415 50.0752 12.3182C50.0752 11.5949 49.7591 10.9012 49.1965 10.3897C48.6339 9.87825 47.8708 9.59091 47.0752 9.59091ZM18.0752 6.86364C18.0752 6.62253 18.1806 6.3913 18.3681 6.22081C18.5556 6.05032 18.81 5.95455 19.0752 5.95455H31.0752C31.3404 5.95455 31.5948 6.05032 31.7823 6.22081C31.9698 6.3913 32.0752 6.62253 32.0752 6.86364V9.59091H18.0752V6.86364ZM40.0752 45.0455H10.0752V15.0455H40.0752V45.0455ZM22.0752 22.3182V36.8636C22.0752 37.587 21.7591 38.2806 21.1965 38.7921C20.6339 39.3036 19.8708 39.5909 19.0752 39.5909C18.2795 39.5909 17.5165 39.3036 16.9539 38.7921C16.3913 38.2806 16.0752 37.587 16.0752 36.8636V22.3182C16.0752 21.5949 16.3913 20.9012 16.9539 20.3897C17.5165 19.8782 18.2795 19.5909 19.0752 19.5909C19.8708 19.5909 20.6339 19.8782 21.1965 20.3897C21.7591 20.9012 22.0752 21.5949 22.0752 22.3182ZM34.0752 22.3182V36.8636C34.0752 37.587 33.7591 38.2806 33.1965 38.7921C32.6339 39.3036 31.8708 39.5909 31.0752 39.5909C30.2795 39.5909 29.5165 39.3036 28.9539 38.7921C28.3913 38.2806 28.0752 37.587 28.0752 36.8636V22.3182C28.0752 21.5949 28.3913 20.9012 28.9539 20.3897C29.5165 19.8782 30.2795 19.5909 31.0752 19.5909C31.8708 19.5909 32.6339 19.8782 33.1965 20.3897C33.7591 20.9012 34.0752 21.5949 34.0752 22.3182Z" fill="black"/>
</svg>
