<svg width="30" height="30" viewBox="0 0 30 30" fill="none" xmlns="http://www.w3.org/2000/svg">
<path d="M16.4723 16.4723H13.6304V7.94659H16.4723V16.4723ZM16.4723 22.1562H13.6304V19.3143H16.4723V22.1562ZM15.0514 0.841797C13.1854 0.841797 11.3376 1.20934 9.61361 1.92344C7.88963 2.63754 6.32317 3.68421 5.00369 5.00369C2.33887 7.66851 0.841797 11.2828 0.841797 15.0514C0.841797 18.82 2.33887 22.4343 5.00369 25.0991C6.32317 26.4186 7.88963 27.4652 9.61361 28.1793C11.3376 28.8934 13.1854 29.261 15.0514 29.261C18.82 29.261 22.4343 27.7639 25.0991 25.0991C27.7639 22.4343 29.261 18.82 29.261 15.0514C29.261 13.1854 28.8934 11.3376 28.1793 9.61361C27.4652 7.88963 26.4186 6.32317 25.0991 5.00369C23.7796 3.68421 22.2132 2.63754 20.4892 1.92344C18.7652 1.20934 16.9174 0.841797 15.0514 0.841797Z" fill="#A12D28"/>
</svg>
