<svg width="71" height="51" viewBox="0 0 71 51" fill="none" xmlns="http://www.w3.org/2000/svg">
<path d="M70.5 6.75001V44.25C70.5 45.9688 69.814 47.4406 68.442 48.6656C67.07 49.8906 65.4227 50.5021 63.5 50.5H7.50001C5.57501 50.5 3.92651 49.8875 2.55451 48.6625C1.18251 47.4375 0.497673 45.9667 0.500006 44.25V6.75001C0.500006 5.03126 1.18601 3.55938 2.55801 2.33438C3.93001 1.10938 5.57734 0.497922 7.50001 0.500005H63.5C65.425 0.500005 67.0735 1.1125 68.4455 2.3375C69.8175 3.5625 70.5023 5.03334 70.5 6.75001ZM7.50001 13H63.5V6.75001H7.50001V13ZM7.50001 25.5V44.25H63.5V25.5H7.50001Z" fill="black" fill-opacity="0.72"/>
</svg>
