<svg width="154" height="135" viewBox="0 0 154 135" fill="none" xmlns="http://www.w3.org/2000/svg">
<path d="M142.75 25.3125H17.75C15.678 25.3125 13.6909 24.4894 12.2257 23.0243C10.7606 21.5591 9.9375 19.572 9.9375 17.5C9.9375 15.428 10.7606 13.4409 12.2257 11.9757C13.6909 10.5106 15.678 9.6875 17.75 9.6875H124C125.243 9.6875 126.435 9.19364 127.315 8.31456C128.194 7.43549 128.688 6.2432 128.688 5C128.688 3.7568 128.194 2.56451 127.315 1.68544C126.435 0.80636 125.243 0.3125 124 0.3125H17.75C13.1916 0.3125 8.81988 2.12332 5.5966 5.3466C2.37332 8.56988 0.5625 12.9416 0.5625 17.5V117.5C0.5625 122.058 2.37332 126.43 5.5966 129.653C8.81988 132.877 13.1916 134.688 17.75 134.688H142.75C145.651 134.688 148.433 133.535 150.484 131.484C152.535 129.433 153.688 126.651 153.688 123.75V36.25C153.688 33.3492 152.535 30.5672 150.484 28.516C148.433 26.4648 145.651 25.3125 142.75 25.3125ZM144.312 123.75C144.312 124.164 144.148 124.562 143.855 124.855C143.562 125.148 143.164 125.312 142.75 125.312H17.75C15.678 125.312 13.6909 124.489 12.2257 123.024C10.7606 121.559 9.9375 119.572 9.9375 117.5V32.8047C12.3546 34.0453 15.0331 34.6909 17.75 34.6875H142.75C143.164 34.6875 143.562 34.8521 143.855 35.1451C144.148 35.4382 144.312 35.8356 144.312 36.25V123.75ZM122.438 76.875C122.438 78.4202 121.979 79.9306 121.121 81.2154C120.262 82.5002 119.042 83.5015 117.615 84.0928C116.187 84.6841 114.616 84.8388 113.101 84.5374C111.585 84.2359 110.193 83.4919 109.101 82.3993C108.008 81.3067 107.264 79.9146 106.963 78.3991C106.661 76.8837 106.816 75.3128 107.407 73.8853C107.998 72.4577 109 71.2376 110.285 70.3791C111.569 69.5207 113.08 69.0625 114.625 69.0625C116.697 69.0625 118.684 69.8856 120.149 71.3507C121.614 72.8158 122.438 74.803 122.438 76.875Z" fill="#8EBF59"/>
</svg>
