<svg width="40" height="40" viewBox="0 0 40 40" fill="none" xmlns="http://www.w3.org/2000/svg">
<path d="M37.1429 7.44186H4.4898C3.94854 7.44186 3.42945 7.19684 3.04672 6.76071C2.66399 6.32458 2.44898 5.73306 2.44898 5.11628C2.44898 4.4995 2.66399 3.90798 3.04672 3.47184C3.42945 3.03571 3.94854 2.7907 4.4898 2.7907H32.2449C32.5697 2.7907 32.8811 2.64369 33.1107 2.38201C33.3404 2.12033 33.4694 1.76542 33.4694 1.39535C33.4694 1.02528 33.3404 0.670367 33.1107 0.408688C32.8811 0.147009 32.5697 0 32.2449 0H4.4898C3.29903 0 2.15703 0.539035 1.31503 1.49852C0.47303 2.45801 0 3.75936 0 5.11628V34.8837C0 36.2406 0.47303 37.542 1.31503 38.5015C2.15703 39.461 3.29903 40 4.4898 40H37.1429C37.9006 40 38.6273 39.657 39.1632 39.0464C39.699 38.4358 40 37.6077 40 36.7442V10.6977C40 9.83418 39.699 9.00605 39.1632 8.39547C38.6273 7.78488 37.9006 7.44186 37.1429 7.44186ZM37.551 36.7442C37.551 36.8675 37.508 36.9858 37.4315 37.0731C37.3549 37.1603 37.2511 37.2093 37.1429 37.2093H4.4898C3.94854 37.2093 3.42945 36.9643 3.04672 36.5282C2.66399 36.092 2.44898 35.5005 2.44898 34.8837V9.67209C3.08039 10.0414 3.78007 10.2336 4.4898 10.2326H37.1429C37.2511 10.2326 37.3549 10.2816 37.4315 10.3688C37.508 10.456 37.551 10.5743 37.551 10.6977V36.7442ZM31.8367 22.7907C31.8367 23.2507 31.717 23.7003 31.4928 24.0827C31.2685 24.4652 30.9498 24.7632 30.5769 24.9393C30.204 25.1153 29.7937 25.1613 29.3978 25.0716C29.0019 24.9819 28.6383 24.7604 28.3528 24.4351C28.0674 24.1099 27.8731 23.6955 27.7943 23.2444C27.7156 22.7933 27.756 22.3257 27.9104 21.9007C28.0649 21.4758 28.3265 21.1126 28.6621 20.857C28.9977 20.6015 29.3923 20.4651 29.7959 20.4651C30.3372 20.4651 30.8563 20.7101 31.239 21.1463C31.6217 21.5824 31.8367 22.1739 31.8367 22.7907Z" fill="black"/>
</svg>
